<?xml version="1.0" encoding="UTF-8"?>
<svg xmlns="http://www.w3.org/2000/svg" xmlns:xlink="http://www.w3.org/1999/xlink" width="128px" height="128px" viewBox="0 0 128 128" version="1.1">
<g id="surface1">
<path style=" stroke:none;fill-rule:nonzero;fill:rgb(81.176472%,94.117647%,61.960787%);fill-opacity:1;" d="M 94.378906 54.339844 L 33.621094 54.339844 C 30.839844 54.339844 28.582031 52.085938 28.582031 49.304688 L 28.582031 9.25 C 28.582031 6.46875 30.839844 4.210938 33.621094 4.210938 L 94.378906 4.210938 C 97.160156 4.210938 99.417969 6.46875 99.417969 9.25 L 99.417969 49.304688 C 99.417969 52.085938 97.160156 54.339844 94.378906 54.339844 Z M 94.378906 54.339844 "/>
<path style=" stroke:none;fill-rule:nonzero;fill:rgb(31.37255%,48.627451%,36.078432%);fill-opacity:1;" d="M 94.378906 58.398438 L 33.621094 58.398438 C 28.605469 58.398438 24.523438 54.320312 24.523438 49.304688 L 24.523438 9.25 C 24.523438 4.234375 28.605469 0.152344 33.621094 0.152344 L 94.378906 0.152344 C 99.394531 0.152344 103.476562 4.234375 103.476562 9.25 L 103.476562 49.304688 C 103.476562 54.320312 99.394531 58.398438 94.378906 58.398438 Z M 33.621094 8.273438 C 33.082031 8.273438 32.640625 8.710938 32.640625 9.25 L 32.640625 49.304688 C 32.640625 49.84375 33.082031 50.28125 33.621094 50.28125 L 94.378906 50.28125 C 94.917969 50.28125 95.355469 49.84375 95.355469 49.304688 L 95.355469 9.25 C 95.355469 8.710938 94.917969 8.273438 94.378906 8.273438 C 94.378906 8.273438 33.621094 8.273438 33.621094 8.273438 Z M 33.621094 8.273438 "/>
<path style=" stroke:none;fill-rule:nonzero;fill:rgb(31.37255%,48.627451%,36.078432%);fill-opacity:1;" d="M 113.117188 104.167969 C 110.875 104.167969 109.058594 102.351562 109.058594 100.109375 L 109.058594 82.046875 C 109.058594 79.921875 107.328125 78.191406 105.203125 78.191406 L 22.796875 78.191406 C 20.671875 78.191406 18.941406 79.921875 18.941406 82.046875 L 18.941406 100.109375 C 18.941406 102.351562 17.125 104.167969 14.882812 104.167969 C 12.640625 104.167969 10.824219 102.351562 10.824219 100.109375 L 10.824219 82.046875 C 10.824219 75.445312 16.195312 70.070312 22.796875 70.070312 L 105.203125 70.070312 C 111.804688 70.070312 117.175781 75.445312 117.175781 82.046875 L 117.175781 100.109375 C 117.175781 102.351562 115.359375 104.167969 113.117188 104.167969 Z M 113.117188 104.167969 "/>
<path style=" stroke:none;fill-rule:nonzero;fill:rgb(31.37255%,48.627451%,36.078432%);fill-opacity:1;" d="M 64 91.179688 C 61.757812 91.179688 59.941406 89.363281 59.941406 87.121094 L 59.941406 54.339844 C 59.941406 52.097656 61.757812 50.28125 64 50.28125 C 66.242188 50.28125 68.058594 52.097656 68.058594 54.339844 L 68.058594 87.121094 C 68.058594 89.363281 66.242188 91.179688 64 91.179688 Z M 64 91.179688 "/>
<path style=" stroke:none;fill-rule:nonzero;fill:rgb(31.37255%,48.627451%,36.078432%);fill-opacity:1;" d="M 14.882812 127.847656 C 6.675781 127.847656 0 121.171875 0 112.964844 C 0 104.757812 6.675781 98.082031 14.882812 98.082031 C 23.089844 98.082031 29.765625 104.757812 29.765625 112.964844 C 29.765625 121.171875 23.089844 127.847656 14.882812 127.847656 Z M 14.882812 106.203125 C 11.152344 106.203125 8.117188 109.234375 8.117188 112.964844 C 8.117188 116.691406 11.152344 119.726562 14.882812 119.726562 C 18.613281 119.726562 21.644531 116.691406 21.644531 112.964844 C 21.644531 109.234375 18.609375 106.203125 14.882812 106.203125 Z M 14.882812 106.203125 "/>
<path style=" stroke:none;fill-rule:nonzero;fill:rgb(31.37255%,48.627451%,36.078432%);fill-opacity:1;" d="M 74.824219 127.847656 L 53.175781 127.847656 C 50.933594 127.847656 49.117188 126.027344 49.117188 123.785156 L 49.117188 102.140625 C 49.117188 99.898438 50.933594 98.082031 53.175781 98.082031 L 74.824219 98.082031 C 77.066406 98.082031 78.882812 99.898438 78.882812 102.140625 C 78.882812 104.382812 77.066406 106.203125 74.824219 106.203125 L 57.238281 106.203125 L 57.238281 119.726562 L 70.765625 119.726562 L 70.765625 114.183594 C 70.765625 111.941406 72.582031 110.121094 74.824219 110.121094 C 77.066406 110.121094 78.882812 111.941406 78.882812 114.183594 L 78.882812 123.789062 C 78.882812 126.027344 77.066406 127.847656 74.824219 127.847656 Z M 74.824219 127.847656 "/>
<path style=" stroke:none;fill-rule:nonzero;fill:rgb(31.37255%,48.627451%,36.078432%);fill-opacity:1;" d="M 113.117188 127.847656 C 104.910156 127.847656 98.234375 121.171875 98.234375 112.964844 C 98.234375 104.757812 104.910156 98.082031 113.117188 98.082031 C 121.324219 98.082031 128 104.757812 128 112.964844 C 128 121.171875 121.324219 127.847656 113.117188 127.847656 Z M 113.117188 106.203125 C 109.386719 106.203125 106.355469 109.234375 106.355469 112.964844 C 106.355469 116.691406 109.390625 119.726562 113.117188 119.726562 C 116.847656 119.726562 119.882812 116.691406 119.882812 112.964844 C 119.882812 109.234375 116.847656 106.203125 113.117188 106.203125 Z M 113.117188 106.203125 "/>
<path style=" stroke:none;fill-rule:nonzero;fill:rgb(31.37255%,48.627451%,36.078432%);fill-opacity:1;" d="M 53.175781 118.242188 L 25.703125 118.242188 C 23.460938 118.242188 21.644531 116.425781 21.644531 114.183594 C 21.644531 111.941406 23.460938 110.121094 25.703125 110.121094 L 53.175781 110.121094 C 55.417969 110.121094 57.238281 111.941406 57.238281 114.183594 C 57.238281 116.425781 55.417969 118.242188 53.175781 118.242188 Z M 53.175781 118.242188 "/>
<path style=" stroke:none;fill-rule:nonzero;fill:rgb(31.37255%,48.627451%,36.078432%);fill-opacity:1;" d="M 88.492188 118.242188 L 74.824219 118.242188 C 72.582031 118.242188 70.761719 116.425781 70.761719 114.183594 C 70.761719 111.941406 72.582031 110.121094 74.824219 110.121094 L 88.492188 110.121094 C 90.730469 110.121094 92.550781 111.941406 92.550781 114.183594 C 92.550781 116.425781 90.730469 118.242188 88.492188 118.242188 Z M 88.492188 118.242188 "/>
</g>
</svg>
