<?xml version="1.0" encoding="UTF-8"?>
<svg xmlns="http://www.w3.org/2000/svg" xmlns:xlink="http://www.w3.org/1999/xlink" width="128px" height="128px" viewBox="0 0 128 128" version="1.1">
<g id="surface1">
<path style=" stroke:none;fill-rule:nonzero;fill:rgb(12.941177%,58.823532%,95.294118%);fill-opacity:1;" d="M 91.730469 16.15625 C 93.15625 15.851562 94.457031 15.582031 95.761719 15.289062 C 95.867188 15.265625 96.019531 15.105469 96.019531 15.011719 C 96.035156 13.574219 96.03125 12.136719 96.03125 10.667969 C 94.667969 10.980469 93.382812 11.261719 92.105469 11.582031 C 91.957031 11.617188 91.75 11.835938 91.75 11.96875 C 91.722656 13.328125 91.730469 14.691406 91.730469 16.15625 Z M 96.035156 117.332031 C 96.035156 115.867188 96.042969 114.445312 96.015625 113.023438 C 96.011719 112.902344 95.773438 112.714844 95.617188 112.675781 C 94.792969 112.476562 93.96875 112.3125 93.136719 112.140625 C 92.6875 112.046875 92.234375 111.960938 91.730469 111.863281 C 91.730469 113.304688 91.722656 114.644531 91.742188 115.984375 C 91.742188 116.125 91.882812 116.367188 91.996094 116.390625 C 93.316406 116.71875 94.640625 117.011719 96.035156 117.332031 Z M 90.65625 16.375 C 90.65625 14.828125 90.65625 13.382812 90.65625 11.902344 C 89.691406 12.101562 88.765625 12.289062 87.839844 12.484375 C 86.367188 12.792969 86.367188 12.796875 86.367188 14.339844 C 86.367188 15.273438 86.367188 16.203125 86.367188 17.1875 C 87.863281 16.90625 89.253906 16.644531 90.65625 16.375 Z M 86.367188 110.8125 C 86.367188 112.269531 86.359375 113.59375 86.378906 114.910156 C 86.382812 115.03125 86.519531 115.238281 86.625 115.257812 C 87.953125 115.550781 89.289062 115.816406 90.65625 116.09375 C 90.65625 114.585938 90.65625 113.121094 90.65625 111.621094 C 89.242188 111.355469 87.847656 111.09375 86.367188 110.8125 Z M 81.039062 18.089844 C 82.40625 17.867188 83.667969 17.667969 84.921875 17.441406 C 85.074219 17.414062 85.316406 17.21875 85.316406 17.09375 C 85.34375 15.753906 85.335938 14.414062 85.335938 13.003906 C 83.921875 13.253906 82.585938 13.488281 81.253906 13.742188 C 81.164062 13.757812 81.046875 13.945312 81.046875 14.058594 C 81.035156 15.378906 81.039062 16.699219 81.039062 18.089844 Z M 79.980469 109.742188 C 78.539062 109.535156 77.136719 109.332031 75.714844 109.125 C 75.714844 110.574219 75.714844 111.96875 75.714844 113.367188 C 77.15625 113.59375 78.550781 113.8125 79.980469 114.039062 C 79.980469 112.585938 79.980469 111.207031 79.980469 109.742188 Z M 64.835938 20.101562 C 66.21875 19.96875 67.5625 19.84375 68.910156 19.695312 C 69.011719 19.683594 69.171875 19.523438 69.171875 19.429688 C 69.191406 18.140625 69.183594 16.851562 69.183594 15.507812 C 67.671875 15.675781 66.25 15.828125 64.835938 15.984375 C 64.835938 17.378906 64.835938 18.710938 64.835938 20.101562 Z M 63.738281 111.90625 C 63.738281 110.972656 63.738281 110.097656 63.738281 109.214844 C 63.738281 107.835938 63.738281 107.828125 62.386719 107.699219 C 61.40625 107.601562 60.429688 107.535156 59.414062 107.457031 C 59.414062 108.851562 59.414062 110.164062 59.414062 111.542969 C 60.847656 111.664062 62.257812 111.785156 63.738281 111.90625 Z M 63.703125 16.089844 C 62.230469 16.214844 60.824219 16.339844 59.417969 16.460938 C 59.417969 17.84375 59.417969 19.15625 59.417969 20.535156 C 60.863281 20.425781 62.273438 20.316406 63.703125 20.207031 C 63.703125 18.820312 63.703125 17.484375 63.703125 16.089844 Z M 70.265625 112.621094 C 71.703125 112.8125 73.105469 113 74.542969 113.1875 C 74.542969 111.753906 74.542969 110.378906 74.542969 108.964844 C 73.105469 108.792969 71.703125 108.625 70.265625 108.449219 C 70.265625 109.871094 70.265625 111.207031 70.265625 112.621094 Z M 74.542969 14.804688 C 73.089844 15 71.671875 15.1875 70.277344 15.378906 C 70.277344 16.796875 70.277344 18.148438 70.277344 19.550781 C 71.730469 19.375 73.132812 19.203125 74.542969 19.03125 C 74.542969 17.59375 74.542969 16.222656 74.542969 14.804688 Z M 53.988281 16.789062 C 53.988281 18.179688 53.988281 19.5 53.988281 20.863281 C 55.457031 20.777344 56.871094 20.691406 58.277344 20.609375 C 58.277344 19.222656 58.277344 17.910156 58.277344 16.546875 C 56.835938 16.628906 55.441406 16.707031 53.988281 16.789062 Z M 58.285156 107.382812 C 56.804688 107.308594 55.398438 107.230469 53.929688 107.15625 C 53.929688 108.449219 53.914062 109.660156 53.945312 110.871094 C 53.953125 110.996094 54.207031 111.210938 54.367188 111.230469 C 54.996094 111.304688 55.632812 111.320312 56.273438 111.351562 C 56.945312 111.386719 57.609375 111.417969 58.285156 111.449219 C 58.285156 110.070312 58.285156 108.757812 58.285156 107.382812 Z M 43.105469 110.917969 C 44.550781 110.917969 45.960938 110.917969 47.398438 110.917969 C 47.398438 109.617188 47.398438 108.308594 47.398438 106.933594 C 45.960938 106.933594 44.550781 106.933594 43.105469 106.933594 C 43.105469 108.222656 43.105469 109.511719 43.105469 110.917969 Z M 48.546875 111.054688 C 50.019531 111.054688 51.425781 111.054688 52.832031 111.054688 C 52.832031 109.742188 52.832031 108.449219 52.832031 107.0625 C 51.390625 107.0625 49.980469 107.0625 48.546875 107.0625 C 48.546875 108.34375 48.546875 109.636719 48.546875 111.054688 Z M 47.398438 21.0625 C 47.398438 19.675781 47.398438 18.378906 47.398438 17.089844 C 45.953125 17.089844 44.542969 17.089844 43.121094 17.089844 C 43.121094 18.460938 43.121094 19.765625 43.121094 21.0625 C 44.574219 21.0625 45.96875 21.0625 47.398438 21.0625 Z M 37.644531 21.058594 C 39.085938 21.058594 40.5 21.058594 41.929688 21.058594 C 41.929688 19.738281 41.929688 18.433594 41.929688 17.074219 C 40.476562 17.074219 39.0625 17.074219 37.644531 17.074219 C 37.644531 18.414062 37.644531 19.710938 37.644531 21.058594 Z M 96.015625 21.347656 C 94.550781 21.625 93.148438 21.890625 91.78125 22.148438 C 91.78125 23.507812 91.78125 24.773438 91.78125 26.113281 C 93.230469 25.871094 94.617188 25.632812 96.015625 25.398438 C 96.015625 24.039062 96.015625 22.746094 96.015625 21.347656 Z M 91.730469 101.878906 C 91.730469 102.664062 91.722656 103.332031 91.734375 104 C 91.742188 104.601562 91.5625 105.367188 91.855469 105.757812 C 92.121094 106.109375 92.910156 106.066406 93.472656 106.175781 C 94.308594 106.339844 95.144531 106.484375 95.992188 106.636719 C 95.992188 105.230469 95.992188 103.925781 95.992188 102.597656 C 94.578125 102.355469 93.207031 102.125 91.730469 101.878906 Z M 101.324219 103.585938 C 99.914062 103.324219 98.542969 103.066406 97.136719 102.800781 C 97.136719 104.1875 97.136719 105.507812 97.136719 106.863281 C 98.53125 107.15625 99.910156 107.441406 101.324219 107.730469 C 101.324219 106.335938 101.324219 104.996094 101.324219 103.585938 Z M 97.148438 25.199219 C 98.574219 24.929688 99.957031 24.664062 101.320312 24.40625 C 101.320312 22.972656 101.320312 21.632812 101.320312 20.261719 C 99.90625 20.554688 98.523438 20.84375 97.148438 21.132812 C 97.148438 22.507812 97.148438 23.824219 97.148438 25.199219 Z M 101.316406 15.0625 C 99.988281 15.367188 98.683594 15.660156 97.386719 15.976562 C 97.28125 16 97.128906 16.152344 97.128906 16.242188 C 97.109375 17.515625 97.117188 18.785156 97.117188 20.105469 C 98.566406 19.792969 99.929688 19.503906 101.320312 19.207031 C 101.316406 17.839844 101.316406 16.5 101.316406 15.0625 Z M 86.390625 26.9375 C 87.859375 26.714844 89.253906 26.503906 90.644531 26.292969 C 90.644531 24.957031 90.644531 23.671875 90.644531 22.339844 C 89.199219 22.582031 87.804688 22.8125 86.390625 23.046875 C 86.390625 24.347656 86.390625 25.597656 86.390625 26.9375 Z M 90.636719 105.652344 C 90.636719 104.285156 90.636719 102.996094 90.636719 101.703125 C 89.207031 101.484375 87.828125 101.28125 86.402344 101.066406 C 86.402344 102.390625 86.402344 103.65625 86.402344 104.953125 C 87.816406 105.183594 89.199219 105.414062 90.636719 105.652344 Z M 90.652344 110.617188 C 90.652344 109.277344 90.652344 107.988281 90.652344 106.664062 C 89.226562 106.425781 87.835938 106.1875 86.398438 105.945312 C 86.398438 107.269531 86.398438 108.535156 86.398438 109.828125 C 87.820312 110.089844 89.210938 110.351562 90.652344 110.617188 Z M 90.65625 17.382812 C 89.328125 17.628906 88.03125 17.863281 86.734375 18.121094 C 86.601562 18.148438 86.382812 18.320312 86.382812 18.429688 C 86.355469 19.617188 86.367188 20.800781 86.367188 22.0625 C 87.851562 21.8125 89.246094 21.574219 90.65625 21.332031 C 90.65625 19.992188 90.65625 18.699219 90.65625 17.382812 Z M 69.148438 107.386719 C 69.148438 106.105469 69.148438 104.921875 69.148438 103.703125 C 67.683594 103.574219 66.265625 103.449219 64.835938 103.324219 C 64.835938 104.59375 64.835938 105.761719 64.835938 106.960938 C 66.273438 107.105469 67.683594 107.246094 69.148438 107.386719 Z M 64.820312 102.398438 C 66.292969 102.523438 67.714844 102.644531 69.113281 102.761719 C 69.15625 102.648438 69.179688 102.609375 69.179688 102.566406 C 69.183594 101.855469 69.1875 101.144531 69.1875 100.433594 C 69.191406 99.125 69.1875 99.125 67.941406 99.007812 C 67.820312 98.996094 67.699219 98.96875 67.574219 98.960938 C 66.660156 98.894531 65.75 98.832031 64.816406 98.769531 C 64.820312 100.019531 64.820312 101.164062 64.820312 102.398438 Z M 21.367188 30.265625 C 21.367188 31.503906 21.367188 32.667969 21.367188 33.886719 C 22.8125 33.96875 24.222656 34.039062 25.648438 34.121094 C 25.648438 32.878906 25.648438 31.710938 25.648438 30.503906 C 24.207031 30.425781 22.800781 30.34375 21.367188 30.265625 Z M 21.367188 102.3125 C 22.820312 102.210938 24.226562 102.109375 25.652344 102.011719 C 25.652344 100.785156 25.652344 99.625 25.652344 98.40625 C 24.207031 98.5 22.800781 98.585938 21.367188 98.679688 C 21.367188 99.894531 21.367188 101.0625 21.367188 102.3125 Z M 21.335938 39.492188 C 21.335938 40.539062 21.328125 41.644531 21.347656 42.746094 C 21.351562 42.84375 21.558594 43.019531 21.667969 43.019531 C 22.980469 43.039062 24.289062 43.03125 25.636719 43.03125 C 25.636719 41.941406 25.636719 40.765625 25.636719 39.492188 C 24.195312 39.492188 22.800781 39.492188 21.335938 39.492188 Z M 21.367188 47.617188 C 22.820312 47.617188 24.214844 47.617188 25.644531 47.617188 C 25.644531 46.464844 25.644531 45.285156 25.644531 44.023438 C 24.199219 44.023438 22.800781 44.023438 21.367188 44.023438 C 21.367188 45.15625 21.367188 46.320312 21.367188 47.617188 Z M 25.65625 93.875 C 24.1875 93.957031 22.777344 94.039062 21.371094 94.117188 C 21.371094 95.367188 21.371094 96.53125 21.371094 97.746094 C 22.820312 97.65625 24.222656 97.570312 25.65625 97.484375 C 25.65625 96.273438 25.65625 95.125 25.65625 93.875 Z M 25.65625 53.105469 C 24.1875 53.105469 22.800781 53.105469 21.375 53.105469 C 21.375 54.289062 21.375 55.464844 21.375 56.695312 C 22.828125 56.695312 24.238281 56.695312 25.65625 56.695312 C 25.65625 55.492188 25.65625 54.347656 25.65625 53.105469 Z M 25.660156 71.332031 C 24.191406 71.332031 22.785156 71.332031 21.378906 71.332031 C 21.378906 72.566406 21.378906 73.746094 21.378906 74.851562 C 22.832031 74.851562 24.238281 74.851562 25.660156 74.851562 C 25.660156 73.625 25.660156 72.5 25.660156 71.332031 Z M 21.367188 79.40625 C 22.8125 79.40625 24.21875 79.40625 25.648438 79.40625 C 25.648438 78.152344 25.648438 76.992188 25.648438 75.867188 C 24.203125 75.867188 22.792969 75.867188 21.367188 75.867188 C 21.367188 77.113281 21.367188 78.28125 21.367188 79.40625 Z M 47.414062 26.5 C 45.945312 26.5 44.53125 26.5 43.121094 26.5 C 43.121094 27.710938 43.121094 28.871094 43.121094 29.996094 C 44.585938 29.996094 45.992188 29.996094 47.414062 29.996094 C 47.414062 28.796875 47.414062 27.667969 47.414062 26.5 Z M 41.941406 26.488281 C 40.488281 26.488281 39.078125 26.488281 37.644531 26.488281 C 37.644531 27.667969 37.644531 28.8125 37.644531 30.011719 C 39.082031 30.011719 40.496094 30.011719 41.941406 30.011719 C 41.941406 28.859375 41.941406 27.710938 41.941406 26.488281 Z M 37.65625 52.339844 C 39.101562 52.339844 40.507812 52.339844 41.933594 52.339844 C 41.933594 51.148438 41.933594 49.992188 41.933594 48.835938 C 40.480469 48.835938 39.070312 48.835938 37.65625 48.835938 C 37.65625 50.027344 37.65625 51.171875 37.65625 52.339844 Z M 37.648438 79.160156 C 39.121094 79.160156 40.535156 79.160156 41.945312 79.160156 C 41.945312 77.953125 41.945312 76.808594 41.945312 75.65625 C 40.5 75.65625 39.089844 75.65625 37.648438 75.65625 C 37.648438 76.851562 37.648438 77.996094 37.648438 79.160156 Z M 36.496094 57.746094 C 35.039062 57.746094 33.625 57.746094 32.199219 57.746094 C 32.199219 58.933594 32.199219 60.078125 32.199219 61.273438 C 33.644531 61.273438 35.054688 61.273438 36.496094 61.273438 C 36.496094 60.101562 36.496094 58.953125 36.496094 57.746094 Z M 37.667969 57.777344 C 37.667969 58.96875 37.667969 60.128906 37.667969 61.273438 C 39.128906 61.273438 40.539062 61.273438 41.945312 61.273438 C 41.945312 60.085938 41.945312 58.9375 41.945312 57.777344 C 40.496094 57.777344 39.085938 57.777344 37.667969 57.777344 Z M 26.78125 56.738281 C 28.21875 56.738281 29.628906 56.738281 31.042969 56.738281 C 31.042969 55.566406 31.042969 54.417969 31.042969 53.210938 C 29.609375 53.210938 28.199219 53.210938 26.78125 53.210938 C 26.78125 54.382812 26.78125 55.53125 26.78125 56.738281 Z M 36.488281 66.738281 C 35.027344 66.738281 33.617188 66.738281 32.1875 66.738281 C 32.1875 67.933594 32.1875 69.078125 32.1875 70.253906 C 33.625 70.253906 35.042969 70.253906 36.488281 70.253906 C 36.488281 69.070312 36.488281 67.921875 36.488281 66.738281 Z M 41.960938 66.726562 C 40.492188 66.726562 39.082031 66.726562 37.671875 66.726562 C 37.671875 67.925781 37.671875 69.082031 37.671875 70.222656 C 39.132812 70.222656 40.542969 70.222656 41.960938 70.222656 C 41.960938 69.046875 41.960938 67.921875 41.960938 66.726562 Z M 31.054688 71.273438 C 29.585938 71.273438 28.183594 71.273438 26.785156 71.273438 C 26.785156 72.492188 26.785156 73.636719 26.785156 74.777344 C 28.222656 74.777344 29.628906 74.777344 31.054688 74.777344 C 31.054688 73.574219 31.054688 72.429688 31.054688 71.273438 Z M 31.039062 65.789062 C 31.039062 64.589844 31.039062 63.429688 31.039062 62.246094 C 29.601562 62.246094 28.199219 62.246094 26.792969 62.246094 C 26.792969 63.449219 26.792969 64.609375 26.792969 65.789062 C 28.238281 65.789062 29.625 65.789062 31.039062 65.789062 Z M 26.78125 79.28125 C 28.21875 79.28125 29.625 79.28125 31.039062 79.28125 C 31.039062 78.050781 31.039062 76.90625 31.039062 75.789062 C 29.597656 75.789062 28.191406 75.789062 26.78125 75.789062 C 26.78125 77.015625 26.78125 78.160156 26.78125 79.28125 Z M 26.78125 101.945312 C 28.222656 101.878906 29.628906 101.8125 31.035156 101.742188 C 31.035156 100.519531 31.035156 99.375 31.035156 98.15625 C 29.59375 98.21875 28.1875 98.285156 26.78125 98.347656 C 26.78125 99.585938 26.78125 100.734375 26.78125 101.945312 Z M 36.5 89.148438 C 35.027344 89.148438 33.617188 89.148438 32.214844 89.148438 C 32.214844 90.382812 32.214844 91.542969 32.214844 92.628906 C 33.671875 92.628906 35.082031 92.628906 36.5 92.628906 C 36.5 91.40625 36.5 90.277344 36.5 89.148438 Z M 26.777344 34.226562 C 28.226562 34.226562 29.632812 34.226562 31.019531 34.226562 C 31.019531 33.089844 31.019531 31.929688 31.019531 30.675781 C 29.585938 30.675781 28.199219 30.675781 26.777344 30.675781 C 26.777344 31.785156 26.777344 32.933594 26.777344 34.226562 Z M 32.195312 83.675781 C 33.667969 83.675781 35.078125 83.675781 36.488281 83.675781 C 36.488281 82.453125 36.488281 81.3125 36.488281 80.183594 C 35.042969 80.183594 33.632812 80.183594 32.195312 80.183594 C 32.195312 81.390625 32.195312 82.535156 32.195312 83.675781 Z M 31.039062 84.777344 C 29.601562 84.777344 28.199219 84.777344 26.785156 84.777344 C 26.785156 86.03125 26.785156 87.195312 26.785156 88.289062 C 28.230469 88.289062 29.632812 88.289062 31.039062 88.289062 C 31.039062 87.035156 31.039062 85.890625 31.039062 84.777344 Z M 43.101562 101.507812 C 44.585938 101.507812 45.996094 101.507812 47.390625 101.507812 C 47.390625 100.324219 47.390625 99.179688 47.390625 97.996094 C 45.9375 97.996094 44.527344 97.996094 43.101562 97.996094 C 43.101562 99.171875 43.101562 100.320312 43.101562 101.507812 Z M 37.660156 98.003906 C 37.660156 99.238281 37.660156 100.375 37.660156 101.503906 C 39.113281 101.503906 40.523438 101.503906 41.949219 101.503906 C 41.949219 100.308594 41.949219 99.164062 41.949219 98.003906 C 40.515625 98.003906 39.105469 98.003906 37.660156 98.003906 Z M 31.039062 92.820312 C 31.039062 91.535156 31.039062 90.394531 31.039062 89.308594 C 29.601562 89.308594 28.195312 89.308594 26.78125 89.308594 C 26.78125 90.5625 26.78125 91.703125 26.78125 92.820312 C 28.207031 92.820312 29.597656 92.820312 31.039062 92.820312 Z M 32.207031 39.835938 C 32.207031 41.007812 32.207031 42.148438 32.207031 43.355469 C 33.65625 43.355469 35.0625 43.355469 36.496094 43.355469 C 36.496094 42.199219 36.496094 41.054688 36.496094 39.835938 C 35.0625 39.835938 33.648438 39.835938 32.207031 39.835938 Z M 26.773438 38.714844 C 28.222656 38.714844 29.613281 38.714844 31.03125 38.714844 C 31.03125 37.585938 31.03125 36.429688 31.03125 35.1875 C 29.585938 35.1875 28.183594 35.1875 26.773438 35.1875 C 26.773438 36.339844 26.773438 37.464844 26.773438 38.714844 Z M 31.019531 52.246094 C 31.019531 51.054688 31.019531 49.894531 31.019531 48.683594 C 29.582031 48.683594 28.1875 48.683594 26.800781 48.683594 C 26.800781 49.882812 26.800781 51.042969 26.800781 52.246094 C 28.222656 52.246094 29.601562 52.246094 31.019531 52.246094 Z M 36.507812 71.222656 C 35.039062 71.222656 33.625 71.222656 32.191406 71.222656 C 32.191406 72.417969 32.191406 73.5625 32.191406 74.703125 C 33.644531 74.703125 35.066406 74.703125 36.507812 74.703125 C 36.507812 73.507812 36.507812 72.382812 36.507812 71.222656 Z M 32.207031 30.871094 C 32.207031 32.011719 32.207031 33.171875 32.207031 34.398438 C 33.660156 34.398438 35.0625 34.398438 36.5 34.398438 C 36.5 33.253906 36.5 32.109375 36.5 30.871094 C 35.070312 30.871094 33.660156 30.871094 32.207031 30.871094 Z M 26.800781 80.257812 C 26.800781 81.539062 26.800781 82.699219 26.800781 83.800781 C 28.246094 83.800781 29.632812 83.800781 31.035156 83.800781 C 31.035156 82.550781 31.035156 81.394531 31.035156 80.257812 C 29.605469 80.257812 28.214844 80.257812 26.800781 80.257812 Z M 32.195312 101.59375 C 33.664062 101.59375 35.074219 101.59375 36.488281 101.59375 C 36.488281 100.355469 36.488281 99.210938 36.488281 98.109375 C 35.042969 98.109375 33.632812 98.109375 32.195312 98.109375 C 32.195312 99.332031 32.195312 100.476562 32.195312 101.59375 Z M 36.507812 102.585938 C 35.039062 102.585938 33.628906 102.585938 32.214844 102.585938 C 32.214844 103.839844 32.214844 105.003906 32.214844 106.089844 C 33.675781 106.089844 35.082031 106.089844 36.507812 106.089844 C 36.507812 104.851562 36.507812 103.71875 36.507812 102.585938 Z M 32.195312 97.117188 C 33.652344 97.117188 35.074219 97.117188 36.484375 97.117188 C 36.484375 95.878906 36.484375 94.734375 36.484375 93.625 C 35.03125 93.625 33.625 93.625 32.195312 93.625 C 32.195312 94.855469 32.195312 96 32.195312 97.117188 Z M 41.945312 44.359375 C 40.484375 44.359375 39.078125 44.359375 37.652344 44.359375 C 37.652344 45.535156 37.652344 46.675781 37.652344 47.871094 C 39.097656 47.871094 40.507812 47.871094 41.945312 47.871094 C 41.945312 46.71875 41.945312 45.574219 41.945312 44.359375 Z M 36.484375 47.835938 C 36.484375 46.636719 36.484375 45.5 36.484375 44.308594 C 35.03125 44.308594 33.621094 44.308594 32.214844 44.308594 C 32.214844 45.484375 32.214844 46.644531 32.214844 47.835938 C 33.664062 47.835938 35.054688 47.835938 36.484375 47.835938 Z M 37.65625 62.246094 C 37.65625 63.445312 37.65625 64.585938 37.65625 65.738281 C 39.105469 65.738281 40.511719 65.738281 41.945312 65.738281 C 41.945312 64.566406 41.945312 63.425781 41.945312 62.246094 C 40.511719 62.246094 39.105469 62.246094 37.65625 62.246094 Z M 43.113281 102.472656 C 43.113281 103.652344 43.113281 104.792969 43.113281 105.976562 C 44.566406 105.976562 45.976562 105.976562 47.390625 105.976562 C 47.390625 104.789062 47.390625 103.644531 47.390625 102.472656 C 45.953125 102.472656 44.558594 102.472656 43.113281 102.472656 Z M 43.097656 25.503906 C 44.585938 25.503906 45.996094 25.503906 47.382812 25.503906 C 47.382812 24.300781 47.382812 23.15625 47.382812 22.046875 C 45.921875 22.046875 44.507812 22.046875 43.097656 22.046875 C 43.097656 23.234375 43.097656 24.363281 43.097656 25.503906 Z M 36.484375 56.785156 C 36.484375 55.609375 36.484375 54.449219 36.484375 53.273438 C 35.03125 53.273438 33.625 53.273438 32.199219 53.273438 C 32.199219 54.457031 32.199219 55.601562 32.199219 56.785156 C 33.632812 56.785156 35.046875 56.785156 36.484375 56.785156 Z M 37.660156 80.132812 C 37.660156 81.34375 37.660156 82.488281 37.660156 83.625 C 39.113281 83.625 40.523438 83.625 41.9375 83.625 C 41.9375 82.433594 41.9375 81.289062 41.9375 80.132812 C 40.503906 80.132812 39.105469 80.132812 37.660156 80.132812 Z M 37.660156 80.132812 "/>
<path style=" stroke:none;fill-rule:nonzero;fill:rgb(12.941177%,58.823532%,95.294118%);fill-opacity:1;" d="M 91.730469 16.15625 C 91.730469 14.691406 91.71875 13.332031 91.746094 11.96875 C 91.75 11.835938 91.957031 11.617188 92.101562 11.582031 C 93.378906 11.261719 94.667969 10.980469 96.03125 10.667969 C 96.03125 12.136719 96.039062 13.574219 96.019531 15.007812 C 96.019531 15.105469 95.871094 15.265625 95.761719 15.289062 C 94.460938 15.582031 93.15625 15.851562 91.730469 16.15625 Z M 96.035156 117.332031 C 94.644531 117.011719 93.316406 116.71875 92 116.394531 C 91.886719 116.367188 91.746094 116.128906 91.742188 115.988281 C 91.722656 114.644531 91.734375 113.308594 91.734375 111.867188 C 92.238281 111.964844 92.691406 112.054688 93.140625 112.144531 C 93.96875 112.316406 94.796875 112.480469 95.617188 112.679688 C 95.777344 112.71875 96.015625 112.902344 96.019531 113.027344 C 96.046875 114.445312 96.035156 115.867188 96.035156 117.332031 Z M 90.65625 16.375 C 89.253906 16.644531 87.863281 16.90625 86.367188 17.191406 C 86.367188 16.207031 86.367188 15.277344 86.367188 14.34375 C 86.367188 12.800781 86.367188 12.796875 87.839844 12.484375 C 88.765625 12.289062 89.691406 12.105469 90.65625 11.90625 C 90.65625 13.386719 90.65625 14.828125 90.65625 16.375 Z M 86.367188 110.8125 C 87.851562 111.09375 89.242188 111.355469 90.65625 111.621094 C 90.65625 113.121094 90.65625 114.582031 90.65625 116.09375 C 89.289062 115.816406 87.953125 115.550781 86.625 115.257812 C 86.519531 115.234375 86.382812 115.03125 86.378906 114.910156 C 86.363281 113.59375 86.367188 112.269531 86.367188 110.8125 Z M 81.039062 18.089844 C 81.039062 16.695312 81.03125 15.378906 81.046875 14.0625 C 81.046875 13.949219 81.164062 13.761719 81.25 13.742188 C 82.585938 13.488281 83.921875 13.257812 85.332031 13.003906 C 85.332031 14.417969 85.34375 15.757812 85.316406 17.097656 C 85.3125 17.21875 85.070312 17.414062 84.921875 17.441406 C 83.667969 17.667969 82.40625 17.867188 81.039062 18.089844 Z M 79.980469 109.742188 C 79.980469 111.207031 79.980469 112.585938 79.980469 114.039062 C 78.550781 113.8125 77.15625 113.59375 75.714844 113.367188 C 75.714844 111.96875 75.714844 110.574219 75.714844 109.125 C 77.136719 109.332031 78.539062 109.535156 79.980469 109.742188 Z M 64.835938 20.101562 C 64.835938 18.710938 64.835938 17.378906 64.835938 15.984375 C 66.253906 15.828125 67.671875 15.671875 69.183594 15.507812 C 69.183594 16.851562 69.191406 18.140625 69.171875 19.429688 C 69.171875 19.523438 69.007812 19.683594 68.910156 19.695312 C 67.566406 19.84375 66.21875 19.96875 64.835938 20.101562 Z M 63.738281 111.90625 C 62.257812 111.78125 60.851562 111.664062 59.414062 111.542969 C 59.414062 110.164062 59.414062 108.851562 59.414062 107.457031 C 60.425781 107.535156 61.40625 107.605469 62.382812 107.699219 C 63.738281 107.828125 63.734375 107.835938 63.734375 109.214844 C 63.738281 110.097656 63.738281 110.972656 63.738281 111.90625 Z M 63.703125 16.089844 C 63.703125 17.484375 63.703125 18.820312 63.703125 20.207031 C 62.269531 20.316406 60.863281 20.425781 59.417969 20.535156 C 59.417969 19.15625 59.417969 17.839844 59.417969 16.457031 C 60.824219 16.339844 62.230469 16.214844 63.703125 16.089844 Z M 70.265625 112.621094 C 70.265625 111.207031 70.265625 109.871094 70.265625 108.449219 C 71.703125 108.625 73.105469 108.792969 74.542969 108.964844 C 74.542969 110.378906 74.542969 111.753906 74.542969 113.1875 C 73.105469 113 71.699219 112.8125 70.265625 112.621094 Z M 74.542969 14.804688 C 74.542969 16.21875 74.542969 17.59375 74.542969 19.03125 C 73.132812 19.203125 71.726562 19.375 70.277344 19.550781 C 70.277344 18.148438 70.277344 16.796875 70.277344 15.378906 C 71.671875 15.191406 73.085938 15 74.542969 14.804688 Z M 53.988281 16.789062 C 55.441406 16.710938 56.835938 16.628906 58.277344 16.550781 C 58.277344 17.910156 58.277344 19.222656 58.277344 20.609375 C 56.871094 20.691406 55.457031 20.777344 53.988281 20.863281 C 53.988281 19.5 53.988281 18.179688 53.988281 16.789062 Z M 58.285156 107.382812 C 58.285156 108.761719 58.285156 110.070312 58.285156 111.449219 C 57.609375 111.417969 56.941406 111.386719 56.273438 111.351562 C 55.636719 111.316406 55 111.304688 54.367188 111.230469 C 54.207031 111.210938 53.949219 111 53.945312 110.871094 C 53.914062 109.660156 53.929688 108.449219 53.929688 107.15625 C 55.398438 107.230469 56.808594 107.304688 58.285156 107.382812 Z M 43.105469 110.917969 C 43.105469 109.511719 43.105469 108.222656 43.105469 106.933594 C 44.554688 106.933594 45.960938 106.933594 47.398438 106.933594 C 47.398438 108.308594 47.398438 109.617188 47.398438 110.917969 C 45.957031 110.917969 44.550781 110.917969 43.105469 110.917969 Z M 48.546875 111.054688 C 48.546875 109.636719 48.546875 108.339844 48.546875 107.0625 C 49.980469 107.0625 51.386719 107.0625 52.832031 107.0625 C 52.832031 108.449219 52.832031 109.738281 52.832031 111.054688 C 51.425781 111.054688 50.019531 111.054688 48.546875 111.054688 Z M 47.398438 21.0625 C 45.96875 21.0625 44.570312 21.0625 43.121094 21.0625 C 43.121094 19.769531 43.121094 18.460938 43.121094 17.089844 C 44.542969 17.089844 45.953125 17.089844 47.398438 17.089844 C 47.398438 18.382812 47.398438 19.675781 47.398438 21.0625 Z M 37.644531 21.058594 C 37.644531 19.710938 37.644531 18.414062 37.644531 17.074219 C 39.070312 17.074219 40.480469 17.074219 41.929688 17.074219 C 41.929688 18.433594 41.929688 19.738281 41.929688 21.058594 C 40.5 21.058594 39.089844 21.058594 37.644531 21.058594 Z M 96.015625 21.347656 C 96.015625 22.742188 96.015625 24.039062 96.015625 25.398438 C 94.617188 25.632812 93.230469 25.871094 91.78125 26.113281 C 91.78125 24.773438 91.78125 23.507812 91.78125 22.148438 C 93.144531 21.890625 94.550781 21.625 96.015625 21.347656 Z M 91.730469 101.878906 C 93.207031 102.128906 94.578125 102.355469 95.992188 102.597656 C 95.992188 103.921875 95.992188 105.230469 95.992188 106.636719 C 95.144531 106.484375 94.308594 106.339844 93.472656 106.175781 C 92.910156 106.066406 92.121094 106.113281 91.855469 105.757812 C 91.5625 105.367188 91.742188 104.601562 91.734375 104 C 91.722656 103.332031 91.730469 102.660156 91.730469 101.878906 Z M 101.324219 103.585938 C 101.324219 104.996094 101.324219 106.332031 101.324219 107.734375 C 99.914062 107.441406 98.535156 107.15625 97.136719 106.871094 C 97.136719 105.507812 97.136719 104.195312 97.136719 102.808594 C 98.542969 103.066406 99.914062 103.324219 101.324219 103.585938 Z M 97.148438 25.199219 C 97.148438 23.820312 97.148438 22.507812 97.148438 21.132812 C 98.523438 20.84375 99.90625 20.554688 101.320312 20.261719 C 101.320312 21.636719 101.320312 22.972656 101.320312 24.40625 C 99.957031 24.667969 98.574219 24.929688 97.148438 25.199219 Z M 101.316406 15.0625 C 101.316406 16.5 101.316406 17.839844 101.316406 19.207031 C 99.929688 19.5 98.5625 19.792969 97.113281 20.105469 C 97.113281 18.785156 97.109375 17.515625 97.125 16.242188 C 97.128906 16.148438 97.277344 16 97.382812 15.972656 C 98.683594 15.660156 99.988281 15.367188 101.316406 15.0625 Z M 86.390625 26.9375 C 86.390625 25.59375 86.390625 24.347656 86.390625 23.050781 C 87.800781 22.816406 89.199219 22.585938 90.644531 22.347656 C 90.644531 23.675781 90.644531 24.960938 90.644531 26.296875 C 89.253906 26.503906 87.859375 26.714844 86.390625 26.9375 Z M 90.636719 105.652344 C 89.199219 105.410156 87.816406 105.183594 86.402344 104.949219 C 86.402344 103.652344 86.402344 102.382812 86.402344 101.0625 C 87.828125 101.277344 89.207031 101.484375 90.636719 101.699219 C 90.636719 102.996094 90.636719 104.289062 90.636719 105.652344 Z M 90.652344 110.617188 C 89.210938 110.347656 87.816406 110.09375 86.398438 109.828125 C 86.398438 108.535156 86.398438 107.265625 86.398438 105.941406 C 87.835938 106.183594 89.226562 106.421875 90.652344 106.660156 C 90.652344 107.988281 90.652344 109.273438 90.652344 110.617188 Z M 90.65625 17.382812 C 90.65625 18.699219 90.65625 19.988281 90.65625 21.332031 C 89.246094 21.574219 87.851562 21.8125 86.367188 22.0625 C 86.367188 20.800781 86.359375 19.613281 86.382812 18.429688 C 86.386719 18.320312 86.601562 18.148438 86.738281 18.121094 C 88.03125 17.859375 89.332031 17.625 90.65625 17.382812 Z M 69.148438 107.386719 C 67.683594 107.242188 66.273438 107.105469 64.835938 106.96875 C 64.835938 105.765625 64.835938 104.597656 64.835938 103.332031 C 66.265625 103.457031 67.6875 103.582031 69.148438 103.710938 C 69.148438 104.921875 69.148438 106.105469 69.148438 107.386719 Z M 64.820312 102.398438 C 64.820312 101.164062 64.820312 100.019531 64.820312 98.765625 C 65.753906 98.828125 66.664062 98.894531 67.574219 98.957031 C 67.699219 98.964844 67.820312 98.996094 67.945312 99.003906 C 69.191406 99.121094 69.195312 99.121094 69.191406 100.429688 C 69.191406 101.140625 69.1875 101.851562 69.179688 102.566406 C 69.179688 102.605469 69.15625 102.644531 69.117188 102.761719 C 67.714844 102.644531 66.292969 102.523438 64.820312 102.398438 Z M 21.367188 30.265625 C 22.800781 30.34375 24.207031 30.425781 25.648438 30.503906 C 25.648438 31.710938 25.648438 32.878906 25.648438 34.121094 C 24.21875 34.042969 22.8125 33.96875 21.367188 33.886719 C 21.367188 32.667969 21.367188 31.503906 21.367188 30.265625 Z M 21.367188 102.3125 C 21.367188 101.0625 21.367188 99.894531 21.367188 98.675781 C 22.800781 98.585938 24.207031 98.496094 25.652344 98.402344 C 25.652344 99.621094 25.652344 100.785156 25.652344 102.007812 C 24.226562 102.109375 22.820312 102.210938 21.367188 102.3125 Z M 21.335938 39.492188 C 22.800781 39.492188 24.195312 39.492188 25.636719 39.492188 C 25.636719 40.765625 25.636719 41.945312 25.636719 43.03125 C 24.292969 43.03125 22.980469 43.039062 21.667969 43.019531 C 21.558594 43.019531 21.351562 42.84375 21.347656 42.746094 C 21.328125 41.644531 21.335938 40.539062 21.335938 39.492188 Z M 21.367188 47.617188 C 21.367188 46.320312 21.367188 45.15625 21.367188 44.023438 C 22.800781 44.023438 24.199219 44.023438 25.644531 44.023438 C 25.644531 45.28125 25.644531 46.464844 25.644531 47.617188 C 24.214844 47.617188 22.816406 47.617188 21.367188 47.617188 Z M 25.65625 93.875 C 25.65625 95.125 25.65625 96.269531 25.65625 97.484375 C 24.222656 97.570312 22.820312 97.65625 21.371094 97.746094 C 21.371094 96.53125 21.371094 95.367188 21.371094 94.117188 C 22.777344 94.039062 24.183594 93.960938 25.65625 93.875 Z M 25.65625 53.105469 C 25.65625 54.347656 25.65625 55.496094 25.65625 56.695312 C 24.238281 56.695312 22.828125 56.695312 21.375 56.695312 C 21.375 55.464844 21.375 54.289062 21.375 53.105469 C 22.800781 53.105469 24.1875 53.105469 25.65625 53.105469 Z M 25.660156 71.332031 C 25.660156 72.5 25.660156 73.625 25.660156 74.851562 C 24.238281 74.851562 22.835938 74.851562 21.378906 74.851562 C 21.378906 73.742188 21.378906 72.566406 21.378906 71.332031 C 22.785156 71.332031 24.191406 71.332031 25.660156 71.332031 Z M 21.367188 79.40625 C 21.367188 78.277344 21.367188 77.113281 21.367188 75.867188 C 22.792969 75.867188 24.203125 75.867188 25.648438 75.867188 C 25.648438 76.992188 25.648438 78.152344 25.648438 79.40625 C 24.21875 79.40625 22.8125 79.40625 21.367188 79.40625 Z M 47.414062 26.5 C 47.414062 27.667969 47.414062 28.800781 47.414062 29.996094 C 45.992188 29.996094 44.585938 29.996094 43.121094 29.996094 C 43.121094 28.871094 43.121094 27.710938 43.121094 26.5 C 44.535156 26.5 45.945312 26.5 47.414062 26.5 Z M 41.941406 26.488281 C 41.941406 27.714844 41.941406 28.859375 41.941406 30.011719 C 40.496094 30.011719 39.089844 30.011719 37.644531 30.011719 C 37.644531 28.8125 37.644531 27.671875 37.644531 26.488281 C 39.078125 26.488281 40.488281 26.488281 41.941406 26.488281 Z M 37.65625 52.339844 C 37.65625 51.171875 37.65625 50.027344 37.65625 48.835938 C 39.070312 48.835938 40.476562 48.835938 41.933594 48.835938 C 41.933594 49.992188 41.933594 51.148438 41.933594 52.339844 C 40.507812 52.339844 39.101562 52.339844 37.65625 52.339844 Z M 37.648438 79.160156 C 37.648438 77.996094 37.648438 76.851562 37.648438 75.65625 C 39.089844 75.65625 40.5 75.65625 41.945312 75.65625 C 41.945312 76.808594 41.945312 77.953125 41.945312 79.160156 C 40.535156 79.160156 39.125 79.160156 37.648438 79.160156 Z M 36.496094 57.746094 C 36.496094 58.953125 36.496094 60.101562 36.496094 61.273438 C 35.058594 61.273438 33.644531 61.273438 32.199219 61.273438 C 32.199219 60.078125 32.199219 58.9375 32.199219 57.746094 C 33.625 57.746094 35.039062 57.746094 36.496094 57.746094 Z M 37.667969 57.777344 C 39.085938 57.777344 40.496094 57.777344 41.945312 57.777344 C 41.945312 58.941406 41.945312 60.085938 41.945312 61.273438 C 40.539062 61.273438 39.128906 61.273438 37.667969 61.273438 C 37.667969 60.128906 37.667969 58.96875 37.667969 57.777344 Z M 26.78125 56.738281 C 26.78125 55.53125 26.78125 54.382812 26.78125 53.210938 C 28.199219 53.210938 29.609375 53.210938 31.042969 53.210938 C 31.042969 54.421875 31.042969 55.566406 31.042969 56.738281 C 29.628906 56.738281 28.222656 56.738281 26.78125 56.738281 Z M 36.488281 66.738281 C 36.488281 67.921875 36.488281 69.070312 36.488281 70.253906 C 35.042969 70.253906 33.628906 70.253906 32.1875 70.253906 C 32.1875 69.078125 32.1875 67.933594 32.1875 66.738281 C 33.617188 66.738281 35.03125 66.738281 36.488281 66.738281 Z M 41.960938 66.726562 C 41.960938 67.921875 41.960938 69.046875 41.960938 70.222656 C 40.542969 70.222656 39.132812 70.222656 37.671875 70.222656 C 37.671875 69.078125 37.671875 67.921875 37.671875 66.726562 C 39.078125 66.726562 40.492188 66.726562 41.960938 66.726562 Z M 31.054688 71.273438 C 31.054688 72.429688 31.054688 73.574219 31.054688 74.777344 C 29.628906 74.777344 28.226562 74.777344 26.785156 74.777344 C 26.785156 73.636719 26.785156 72.492188 26.785156 71.273438 C 28.179688 71.273438 29.585938 71.273438 31.054688 71.273438 Z M 31.039062 65.789062 C 29.625 65.789062 28.230469 65.789062 26.792969 65.789062 C 26.792969 64.609375 26.792969 63.453125 26.792969 62.246094 C 28.199219 62.246094 29.601562 62.246094 31.039062 62.246094 C 31.039062 63.429688 31.039062 64.59375 31.039062 65.789062 Z M 26.78125 79.28125 C 26.78125 78.160156 26.78125 77.011719 26.78125 75.789062 C 28.1875 75.789062 29.597656 75.789062 31.039062 75.789062 C 31.039062 76.902344 31.039062 78.046875 31.039062 79.28125 C 29.625 79.28125 28.21875 79.28125 26.78125 79.28125 Z M 26.78125 101.945312 C 26.78125 100.730469 26.78125 99.585938 26.78125 98.347656 C 28.1875 98.285156 29.59375 98.222656 31.035156 98.15625 C 31.035156 99.375 31.035156 100.519531 31.035156 101.742188 C 29.628906 101.8125 28.222656 101.878906 26.78125 101.945312 Z M 36.5 89.148438 C 36.5 90.273438 36.5 91.402344 36.5 92.628906 C 35.078125 92.628906 33.671875 92.628906 32.214844 92.628906 C 32.214844 91.542969 32.214844 90.382812 32.214844 89.148438 C 33.617188 89.148438 35.027344 89.148438 36.5 89.148438 Z M 26.777344 34.226562 C 26.777344 32.933594 26.777344 31.785156 26.777344 30.675781 C 28.199219 30.675781 29.585938 30.675781 31.019531 30.675781 C 31.019531 31.929688 31.019531 33.089844 31.019531 34.226562 C 29.632812 34.226562 28.230469 34.226562 26.777344 34.226562 Z M 32.195312 83.675781 C 32.195312 82.535156 32.195312 81.390625 32.195312 80.183594 C 33.632812 80.183594 35.042969 80.183594 36.488281 80.183594 C 36.488281 81.3125 36.488281 82.449219 36.488281 83.675781 C 35.074219 83.675781 33.667969 83.675781 32.195312 83.675781 Z M 31.039062 84.777344 C 31.039062 85.886719 31.039062 87.03125 31.039062 88.289062 C 29.632812 88.289062 28.230469 88.289062 26.785156 88.289062 C 26.785156 87.195312 26.785156 86.035156 26.785156 84.777344 C 28.195312 84.777344 29.601562 84.777344 31.039062 84.777344 Z M 43.101562 101.507812 C 43.101562 100.316406 43.101562 99.171875 43.101562 97.996094 C 44.527344 97.996094 45.9375 97.996094 47.390625 97.996094 C 47.390625 99.179688 47.390625 100.324219 47.390625 101.507812 C 45.996094 101.507812 44.589844 101.507812 43.101562 101.507812 Z M 37.660156 98.003906 C 39.105469 98.003906 40.515625 98.003906 41.949219 98.003906 C 41.949219 99.164062 41.949219 100.308594 41.949219 101.503906 C 40.523438 101.503906 39.113281 101.503906 37.660156 101.503906 C 37.660156 100.382812 37.660156 99.238281 37.660156 98.003906 Z M 31.039062 92.820312 C 29.601562 92.820312 28.207031 92.820312 26.78125 92.820312 C 26.78125 91.707031 26.78125 90.558594 26.78125 89.308594 C 28.191406 89.308594 29.601562 89.308594 31.039062 89.308594 C 31.039062 90.390625 31.039062 91.535156 31.039062 92.820312 Z M 32.207031 39.835938 C 33.648438 39.835938 35.058594 39.835938 36.496094 39.835938 C 36.496094 41.054688 36.496094 42.199219 36.496094 43.355469 C 35.0625 43.355469 33.65625 43.355469 32.207031 43.355469 C 32.207031 42.152344 32.207031 41.007812 32.207031 39.835938 Z M 26.773438 38.714844 C 26.773438 37.464844 26.773438 36.339844 26.773438 35.1875 C 28.183594 35.1875 29.585938 35.1875 31.03125 35.1875 C 31.03125 36.425781 31.03125 37.585938 31.03125 38.714844 C 29.613281 38.714844 28.222656 38.714844 26.773438 38.714844 Z M 31.019531 52.246094 C 29.601562 52.246094 28.222656 52.246094 26.800781 52.246094 C 26.800781 51.046875 26.800781 49.882812 26.800781 48.683594 C 28.191406 48.683594 29.582031 48.683594 31.019531 48.683594 C 31.019531 49.894531 31.019531 51.054688 31.019531 52.246094 Z M 36.507812 71.222656 C 36.507812 72.382812 36.507812 73.507812 36.507812 74.703125 C 35.070312 74.703125 33.644531 74.703125 32.191406 74.703125 C 32.191406 73.558594 32.191406 72.417969 32.191406 71.222656 C 33.625 71.222656 35.03125 71.222656 36.507812 71.222656 Z M 32.207031 30.871094 C 33.660156 30.871094 35.070312 30.871094 36.5 30.871094 C 36.5 32.105469 36.5 33.25 36.5 34.398438 C 35.066406 34.398438 33.660156 34.398438 32.207031 34.398438 C 32.207031 33.171875 32.207031 32.011719 32.207031 30.871094 Z M 26.800781 80.257812 C 28.214844 80.257812 29.609375 80.257812 31.035156 80.257812 C 31.035156 81.390625 31.035156 82.550781 31.035156 83.800781 C 29.636719 83.800781 28.246094 83.800781 26.800781 83.800781 C 26.800781 82.695312 26.800781 81.535156 26.800781 80.257812 Z M 32.195312 101.59375 C 32.195312 100.480469 32.195312 99.335938 32.195312 98.109375 C 33.632812 98.109375 35.042969 98.109375 36.488281 98.109375 C 36.488281 99.210938 36.488281 100.355469 36.488281 101.59375 C 35.074219 101.59375 33.667969 101.59375 32.195312 101.59375 Z M 36.507812 102.585938 C 36.507812 103.71875 36.507812 104.851562 36.507812 106.089844 C 35.082031 106.089844 33.675781 106.089844 32.214844 106.089844 C 32.214844 105.003906 32.214844 103.84375 32.214844 102.585938 C 33.628906 102.585938 35.039062 102.585938 36.507812 102.585938 Z M 32.195312 97.117188 C 32.195312 96 32.195312 94.855469 32.195312 93.625 C 33.621094 93.625 35.03125 93.625 36.484375 93.625 C 36.484375 94.734375 36.484375 95.875 36.484375 97.117188 C 35.074219 97.117188 33.652344 97.117188 32.195312 97.117188 Z M 41.945312 44.359375 C 41.945312 45.574219 41.945312 46.71875 41.945312 47.871094 C 40.507812 47.871094 39.097656 47.871094 37.652344 47.871094 C 37.652344 46.675781 37.652344 45.535156 37.652344 44.359375 C 39.074219 44.359375 40.484375 44.359375 41.945312 44.359375 Z M 36.484375 47.835938 C 35.058594 47.835938 33.664062 47.835938 32.214844 47.835938 C 32.214844 46.644531 32.214844 45.484375 32.214844 44.308594 C 33.617188 44.308594 35.03125 44.308594 36.484375 44.308594 C 36.484375 45.5 36.484375 46.640625 36.484375 47.835938 Z M 37.65625 62.246094 C 39.101562 62.246094 40.507812 62.246094 41.945312 62.246094 C 41.945312 63.425781 41.945312 64.566406 41.945312 65.738281 C 40.511719 65.738281 39.105469 65.738281 37.65625 65.738281 C 37.65625 64.585938 37.65625 63.441406 37.65625 62.246094 Z M 43.113281 102.472656 C 44.558594 102.472656 45.953125 102.472656 47.390625 102.472656 C 47.390625 103.648438 47.390625 104.789062 47.390625 105.976562 C 45.976562 105.976562 44.566406 105.976562 43.113281 105.976562 C 43.113281 104.792969 43.113281 103.652344 43.113281 102.472656 Z M 43.097656 25.503906 C 43.097656 24.363281 43.097656 23.234375 43.097656 22.046875 C 44.507812 22.046875 45.921875 22.046875 47.382812 22.046875 C 47.382812 23.15625 47.382812 24.296875 47.382812 25.503906 C 45.996094 25.503906 44.585938 25.503906 43.097656 25.503906 Z M 36.484375 56.785156 C 35.046875 56.785156 33.632812 56.785156 32.199219 56.785156 C 32.199219 55.601562 32.199219 54.457031 32.199219 53.273438 C 33.625 53.273438 35.035156 53.273438 36.484375 53.273438 C 36.484375 54.449219 36.484375 55.609375 36.484375 56.785156 Z M 37.660156 80.132812 C 39.105469 80.132812 40.503906 80.132812 41.9375 80.132812 C 41.9375 81.292969 41.9375 82.433594 41.9375 83.625 C 40.523438 83.625 39.113281 83.625 37.660156 83.625 C 37.660156 82.484375 37.660156 81.339844 37.660156 80.132812 Z M 37.660156 80.132812 "/>
<path style=" stroke:none;fill-rule:nonzero;fill:rgb(12.941177%,58.823532%,95.294118%);fill-opacity:1;" d="M 106.5 80.226562 C 106.234375 77.527344 105.53125 74.964844 104.183594 72.59375 C 103.765625 71.851562 103.328125 71.417969 102.414062 71.507812 C 101.664062 71.578125 100.894531 71.457031 100.128906 71.421875 C 99.148438 71.375 98.167969 71.332031 97.152344 71.28125 C 97.152344 69.785156 97.128906 68.359375 97.164062 66.9375 C 97.175781 66.492188 97.027344 66.28125 96.640625 66.164062 C 94.945312 65.65625 93.257812 65.101562 91.546875 64.636719 C 90.5625 64.371094 89.539062 64.25 88.507812 64.058594 C 88.507812 63.550781 88.507812 63.089844 88.507812 62.628906 C 88.507812 60.980469 88.507812 60.988281 90.0625 60.4375 C 92.757812 59.484375 95.425781 58.480469 97.710938 56.664062 C 100.265625 54.632812 102.101562 52.070312 103.183594 48.96875 C 104.164062 46.167969 104.25 43.253906 104.042969 40.324219 C 103.882812 38.074219 103.378906 35.902344 102.335938 33.894531 C 101.519531 32.320312 100.347656 31.050781 98.851562 30.128906 C 95.683594 28.171875 92.199219 27.648438 88.5625 27.851562 C 87.5 27.914062 86.4375 27.988281 85.359375 28.054688 C 85.339844 27.6875 85.320312 27.386719 85.304688 27.070312 C 83.882812 27.25 82.527344 27.421875 81.148438 27.59375 C 81.148438 26.292969 81.148438 25.101562 81.148438 23.875 C 82.550781 23.664062 83.929688 23.457031 85.308594 23.246094 C 85.308594 21.589844 85.308594 20 85.308594 18.425781 C 80.277344 19.136719 75.269531 19.847656 70.21875 20.5625 C 70.21875 23.609375 70.21875 26.652344 70.21875 29.796875 C 67.058594 29.941406 63.9375 30.085938 60.777344 30.230469 C 60.777344 28.957031 60.777344 27.769531 60.777344 26.542969 C 62.132812 26.464844 63.460938 26.390625 64.773438 26.316406 C 64.773438 24.492188 64.773438 22.769531 64.773438 21.113281 C 59.332031 21.417969 53.945312 21.722656 48.5 22.027344 C 48.5 24.980469 48.5 27.90625 48.5 30.898438 C 44.855469 30.898438 41.273438 30.898438 37.652344 30.898438 C 37.652344 32.417969 37.652344 33.875 37.652344 35.441406 C 39.078125 35.441406 40.472656 35.441406 41.871094 35.441406 C 41.871094 36.695312 41.871094 37.835938 41.871094 38.953125 C 40.429688 38.953125 39.035156 38.953125 37.664062 38.953125 C 37.664062 40.449219 37.664062 41.90625 37.664062 43.429688 C 39.476562 43.429688 41.242188 43.429688 43.09375 43.429688 C 43.09375 48.242188 43.09375 52.996094 43.09375 57.800781 C 44.527344 57.800781 45.882812 57.800781 47.238281 57.800781 C 47.238281 58.980469 47.238281 60.097656 47.238281 61.28125 C 45.84375 61.28125 44.488281 61.28125 43.105469 61.28125 C 43.105469 63.121094 43.105469 64.890625 43.105469 66.746094 C 44.507812 66.746094 45.878906 66.746094 47.257812 66.746094 C 47.257812 67.929688 47.257812 69.039062 47.257812 70.226562 C 45.863281 70.226562 44.492188 70.226562 43.054688 70.226562 C 43.054688 75.042969 43.054688 79.777344 43.054688 84.574219 C 41.210938 84.574219 39.445312 84.574219 37.667969 84.574219 C 37.667969 87.628906 37.667969 90.621094 37.667969 93.613281 C 39.0625 93.613281 40.417969 93.613281 41.855469 93.613281 C 41.855469 94.761719 41.855469 95.878906 41.855469 97.089844 C 44.117188 97.089844 46.296875 97.089844 48.554688 97.089844 C 48.554688 100.128906 48.554688 103.074219 48.554688 106.003906 C 52.230469 106.167969 55.828125 106.332031 59.519531 106.492188 C 59.519531 105.339844 59.519531 104.222656 59.519531 103.0625 C 60.960938 103.1875 62.308594 103.308594 63.726562 103.433594 C 63.726562 101.511719 63.726562 99.652344 63.726562 97.722656 C 65.9375 97.894531 68.066406 98.058594 70.257812 98.230469 C 70.257812 101.347656 70.257812 104.40625 70.257812 107.414062 C 75.3125 108.128906 80.308594 108.835938 85.355469 109.550781 C 85.355469 106.347656 85.355469 103.164062 85.355469 99.917969 C 86.257812 99.980469 87.0625 100.039062 87.863281 100.097656 C 90.632812 100.296875 93.378906 100.257812 96.089844 99.519531 C 101.09375 98.160156 104.492188 95.136719 105.863281 89.953125 C 106.707031 86.765625 106.824219 83.507812 106.5 80.226562 Z M 97.199219 35.761719 C 98.53125 35.5625 99.886719 35.363281 101.316406 35.148438 C 101.316406 36.554688 101.316406 37.910156 101.316406 39.339844 C 99.964844 39.507812 98.605469 39.679688 97.199219 39.855469 C 97.199219 38.488281 97.199219 37.164062 97.199219 35.761719 Z M 97.179688 46.234375 C 98.554688 46.105469 99.902344 45.976562 101.296875 45.84375 C 101.296875 47.230469 101.296875 48.601562 101.296875 50.042969 C 99.949219 50.132812 98.585938 50.226562 97.179688 50.320312 C 97.179688 48.902344 97.179688 47.585938 97.179688 46.234375 Z M 54.039062 35.0625 C 55.476562 34.988281 56.863281 34.921875 58.285156 34.851562 C 58.285156 36.070312 58.285156 37.210938 58.285156 38.414062 C 56.863281 38.480469 55.476562 38.546875 54.039062 38.609375 C 54.039062 37.414062 54.039062 36.273438 54.039062 35.0625 Z M 56.617188 48.867188 C 56.617188 49.996094 56.617188 51.113281 56.617188 52.28125 C 55.238281 52.28125 53.851562 52.28125 52.414062 52.28125 C 52.414062 51.171875 52.414062 50.054688 52.414062 48.867188 C 53.820312 48.867188 55.195312 48.867188 56.617188 48.867188 Z M 48.640625 35.222656 C 50.042969 35.222656 51.414062 35.222656 52.824219 35.222656 C 52.824219 36.308594 52.824219 37.449219 52.824219 38.683594 C 51.429688 38.683594 50.054688 38.683594 48.640625 38.683594 C 48.640625 37.605469 48.640625 36.464844 48.640625 35.222656 Z M 46.332031 47.835938 C 46.332031 46.675781 46.332031 45.550781 46.332031 44.390625 C 47.726562 44.390625 49.121094 44.390625 50.554688 44.390625 C 50.554688 45.558594 50.554688 46.675781 50.554688 47.835938 C 49.117188 47.835938 47.738281 47.835938 46.332031 47.835938 Z M 47.40625 92.621094 C 46 92.621094 44.613281 92.621094 43.1875 92.621094 C 43.1875 91.519531 43.1875 90.378906 43.1875 89.164062 C 44.585938 89.164062 45.960938 89.164062 47.40625 89.164062 C 47.40625 90.289062 47.40625 91.410156 47.40625 92.621094 Z M 51.757812 83.609375 C 50.335938 83.609375 48.945312 83.609375 47.519531 83.609375 C 47.519531 82.484375 47.519531 81.363281 47.519531 80.183594 C 48.921875 80.183594 50.308594 80.183594 51.757812 80.183594 C 51.757812 81.320312 51.757812 82.441406 51.757812 83.609375 Z M 51.761719 79.121094 C 50.347656 79.121094 48.957031 79.121094 47.523438 79.121094 C 47.523438 78.007812 47.523438 76.886719 47.523438 75.703125 C 48.929688 75.703125 50.316406 75.703125 51.761719 75.703125 C 51.761719 76.847656 51.761719 77.953125 51.761719 79.121094 Z M 51.894531 62.257812 C 53.285156 62.257812 54.671875 62.257812 56.089844 62.257812 C 56.089844 63.40625 56.089844 64.550781 56.089844 65.734375 C 54.703125 65.734375 53.332031 65.734375 51.894531 65.734375 C 51.894531 64.566406 51.894531 63.441406 51.894531 62.257812 Z M 58.300781 101.484375 C 56.894531 101.484375 55.488281 101.484375 54.046875 101.484375 C 54.046875 100.324219 54.046875 99.222656 54.046875 98.0625 C 55.457031 98.0625 56.859375 98.0625 58.300781 98.0625 C 58.300781 99.195312 58.300781 100.320312 58.300781 101.484375 Z M 61.980469 41.335938 C 62.339844 41.3125 73.753906 40.734375 75.128906 40.699219 C 84.035156 40.46875 83.792969 44.359375 83.859375 47.191406 C 83.976562 52.390625 81.84375 57.0625 71.136719 57.902344 C 70.777344 57.929688 62.105469 58.300781 61.980469 58.300781 C 61.980469 52.628906 61.980469 47.007812 61.980469 41.335938 Z M 69.28125 93.140625 C 68.578125 93.109375 65.792969 92.976562 65.078125 92.945312 C 65.078125 91.777344 65.078125 90.617188 65.078125 89.515625 C 66.46875 89.515625 67.859375 89.515625 69.28125 89.515625 C 69.28125 90.769531 69.28125 91.917969 69.28125 93.140625 Z M 80.113281 93.925781 C 79.070312 93.84375 76.273438 93.621094 75.914062 93.59375 C 75.914062 92.398438 75.914062 91.222656 75.914062 89.96875 C 76.980469 90.046875 78.019531 90.117188 79.0625 90.1875 C 79.414062 90.214844 79.761719 90.238281 80.113281 90.265625 C 80.113281 91.488281 80.113281 92.667969 80.113281 93.925781 Z M 85.96875 82.625 C 85.710938 83.613281 84.984375 87.324219 76.390625 87.3125 C 74.285156 87.308594 62.28125 86.808594 61.972656 86.808594 C 61.972656 81.082031 61.972656 75.503906 61.972656 69.839844 C 62.238281 69.839844 69.871094 70.003906 71.136719 70.074219 C 84.53125 70.796875 84.851562 73.425781 86.214844 78.3125 C 86.605469 79.714844 86.34375 81.207031 85.96875 82.625 Z M 101.316406 87.492188 C 99.9375 87.332031 98.589844 87.171875 97.199219 87.003906 C 97.199219 85.660156 97.199219 84.332031 97.199219 82.90625 C 98.550781 83.039062 99.910156 83.171875 101.316406 83.308594 C 101.316406 84.738281 101.316406 86.089844 101.316406 87.492188 Z M 101.316406 87.492188 "/>
</g>
</svg>
