<?xml version="1.0" encoding="UTF-8"?>
<svg xmlns="http://www.w3.org/2000/svg" xmlns:xlink="http://www.w3.org/1999/xlink" width="128px" height="128px" viewBox="0 0 128 128" version="1.1">
<g id="surface1">
<path style=" stroke:none;fill-rule:nonzero;fill:rgb(90.196079%,38.039216%,0%);fill-opacity:1;" d="M 23.199219 41.546875 C 23.199219 41.546875 21.882812 39.414062 20.335938 40.332031 C 19.589844 40.777344 18.339844 42.027344 16.851562 43.839844 L 18.222656 46.421875 C 19.066406 45.199219 19.984375 44.039062 20.980469 42.9375 C 20.558594 43.417969 19.667969 44.527344 18.398438 46.46875 C 20.179688 46.347656 21.953125 46.128906 23.710938 45.8125 C 24.238281 42.886719 23.199219 41.546875 23.199219 41.546875 Z M 21.140625 42.761719 L 21.257812 42.632812 Z M 4.851562 74.773438 C 3.367188 78.878906 1.988281 83.019531 0.726562 87.199219 C 1.226562 83.851562 2.441406 80.03125 3.664062 76.574219 C 2.902344 76.398438 1.820312 76.613281 0.496094 77.164062 C 1.402344 76.46875 2.304688 75.871094 3.164062 75.820312 C 2.890625 75.761719 2.1875 75.515625 1.242188 74.644531 C 2.144531 74.980469 2.929688 75.148438 3.492188 75.03125 C 3.375 73.523438 2.566406 71.988281 1.5 70.441406 C 1.492188 70.433594 2.992188 71.300781 3.542969 72.203125 L 3.550781 72.078125 C 3.644531 70.90625 3.808594 69.742188 4.046875 68.59375 L 4.046875 68.582031 C 4.230469 67.652344 4.453125 66.726562 4.726562 65.796875 L 5.078125 64.609375 C 5.226562 64.144531 5.398438 63.667969 5.574219 63.167969 C 6.160156 61.5625 6.828125 59.988281 7.574219 58.453125 L 7.765625 58.070312 C 8.449219 56.699219 9.171875 55.34375 9.941406 54.015625 C 10.347656 53.308594 10.761719 52.617188 11.171875 51.9375 C 11.210938 51.898438 11.230469 51.84375 11.265625 51.796875 L 11.253906 51.785156 L 11.296875 51.71875 C 12.554688 49.691406 13.898438 47.71875 15.316406 45.808594 C 15.710938 45.273438 16.121094 44.746094 16.539062 44.230469 L 16.847656 43.84375 L 18.214844 46.414062 C 17.71875 47.125 17.242188 47.839844 16.785156 48.570312 C 15.867188 50.042969 14.996094 51.550781 14.1875 53.082031 L 13.03125 55.289062 L 11.84375 52.949219 L 13.019531 55.296875 L 12.980469 55.375 C 12.746094 55.855469 12.5 56.335938 12.273438 56.816406 C 12.132812 57.097656 11.996094 57.382812 11.863281 57.667969 L 10.761719 60.039062 C 9.707031 62.410156 8.695312 64.800781 7.722656 67.207031 L 6.761719 69.644531 C 6.691406 69.828125 6.621094 70.007812 6.550781 70.191406 C 6.316406 70.835938 6.0625 71.464844 5.835938 72.097656 L 5.835938 72.117188 L 5.660156 72.585938 L 4.90625 74.617188 Z M 22.105469 50.117188 C 21.578125 51.15625 20.984375 52.15625 20.324219 53.113281 C 19.761719 53.910156 19.171875 54.449219 17.886719 55.050781 L 18.003906 55.03125 C 18.015625 55.019531 18.019531 55.019531 18.039062 55.019531 C 18.703125 54.894531 19.53125 54.625 20.011719 54.339844 C 20.0625 54.820312 20.011719 54.976562 19.957031 55.140625 L 19.894531 55.316406 L 19.703125 55.808594 C 19.535156 56.21875 19.355469 56.621094 19.15625 57.011719 C 19.113281 57.113281 19.0625 57.214844 19.007812 57.316406 L 18.878906 57.523438 L 18.21875 58.378906 C 18.03125 58.570312 17.828125 58.75 17.617188 58.917969 C 17.171875 59.246094 16.6875 59.515625 16.175781 59.722656 L 16.265625 59.710938 L 16.609375 59.652344 C 17.296875 59.488281 17.945312 59.199219 18.535156 58.800781 C 17.796875 60.265625 16.792969 61.449219 15.183594 62.0625 L 15.460938 62.027344 L 15.726562 61.96875 C 16.199219 61.875 16.652344 61.71875 17.082031 61.503906 C 16.796875 62.390625 16.476562 63.265625 16.121094 64.128906 C 15.742188 65.054688 15.347656 65.886719 14.921875 66.632812 C 14.402344 67.570312 13.777344 68.441406 13.054688 69.230469 C 11.585938 70.820312 9.296875 72.113281 7.578125 72.324219 L 7.664062 72.339844 C 9.617188 72.746094 11.636719 72.089844 12.976562 70.613281 C 12.800781 70.953125 12.613281 71.285156 12.410156 71.609375 C 11.621094 72.890625 10.714844 73.667969 8.921875 74.476562 C 10.148438 74.542969 10.789062 74.257812 11.3125 73.59375 C 11.226562 73.777344 11.132812 73.953125 11.035156 74.128906 C 9.886719 76.027344 7.652344 76.675781 5.078125 76.558594 C 5.632812 77.070312 5.964844 77.78125 6.003906 78.535156 C 5.609375 77.820312 5.195312 77.195312 4.667969 76.949219 L 5.285156 75.167969 L 5.390625 74.847656 L 6.097656 72.875 L 6.25 72.449219 L 7.15625 70.027344 L 7.195312 69.910156 L 8.089844 67.589844 C 8.414062 66.742188 8.753906 65.925781 9.070312 65.136719 C 9.726562 63.53125 10.40625 61.9375 11.109375 60.351562 C 11.386719 59.734375 11.648438 59.136719 11.921875 58.558594 L 12.1875 57.984375 L 12.703125 56.890625 C 12.851562 56.554688 13.019531 56.238281 13.171875 55.914062 L 13.316406 55.605469 C 13.328125 55.59375 13.332031 55.574219 13.328125 55.546875 L 13.359375 55.542969 C 13.753906 54.742188 14.121094 53.988281 14.496094 53.285156 C 15.296875 51.738281 16.144531 50.214844 17.023438 48.714844 L 17.09375 48.59375 C 17.5625 47.800781 18.003906 47.097656 18.40625 46.480469 C 20.179688 46.355469 21.953125 46.136719 23.710938 45.839844 C 23.652344 46.117188 23.59375 46.410156 23.507812 46.71875 C 23.390625 47.125 23.257812 47.527344 23.109375 47.921875 C 22.816406 48.671875 22.484375 49.40625 22.113281 50.121094 L 22.105469 50.121094 Z M 34.644531 53.710938 L 34.644531 78.222656 C 34.644531 79.71875 34.425781 81.035156 33.980469 82.128906 C 33.578125 83.171875 32.941406 84.105469 32.113281 84.859375 C 31.300781 85.597656 30.332031 86.144531 29.28125 86.457031 C 28.199219 86.792969 26.988281 86.964844 25.683594 86.964844 C 24.503906 86.976562 23.320312 86.84375 22.171875 86.570312 L 21.925781 81.761719 C 22.742188 81.523438 23.195312 81.605469 23.664062 81.667969 C 24.527344 81.796875 25.667969 81.828125 26.542969 81.617188 C 27.351562 81.417969 28.011719 80.839844 28.316406 80.070312 C 28.515625 79.535156 28.609375 78.96875 28.59375 78.398438 L 28.59375 53.707031 C 28.59375 53.519531 28.734375 53.371094 28.921875 53.371094 L 34.308594 53.371094 C 34.5 53.371094 34.644531 53.519531 34.644531 53.707031 Z M 80.449219 61.390625 C 79.675781 60.59375 78.730469 59.984375 77.683594 59.609375 C 76.53125 59.191406 75.3125 58.984375 74.085938 59.003906 C 72.730469 59.003906 71.472656 59.222656 70.339844 59.667969 C 69.230469 60.105469 68.234375 60.789062 67.433594 61.679688 C 66.59375 62.640625 65.957031 63.765625 65.566406 64.980469 C 65.105469 66.464844 64.882812 68.011719 64.910156 69.5625 C 64.910156 71.269531 65.148438 72.792969 65.632812 74.085938 C 66.121094 75.367188 66.816406 76.449219 67.691406 77.300781 C 68.566406 78.136719 69.632812 78.773438 70.835938 79.195312 C 72.113281 79.621094 73.449219 79.832031 74.792969 79.824219 C 75.558594 79.824219 76.21875 79.796875 76.804688 79.742188 C 77.914062 79.660156 79.011719 79.425781 80.058594 79.050781 C 80.566406 78.875 81.054688 78.65625 81.515625 78.410156 L 81.691406 74.011719 C 79.832031 74.441406 78.339844 74.921875 76.800781 75.128906 C 76.257812 75.183594 75.710938 75.210938 75.164062 75.207031 C 74.558594 75.21875 73.957031 75.121094 73.390625 74.910156 C 72.902344 74.71875 72.460938 74.421875 72.097656 74.046875 C 71.734375 73.636719 71.453125 73.160156 71.269531 72.644531 C 71.097656 72.136719 70.996094 71.609375 70.960938 71.070312 L 82.464844 71.070312 L 82.800781 68.164062 C 82.824219 66.851562 82.617188 65.542969 82.191406 64.296875 C 81.832031 63.214844 81.234375 62.226562 80.449219 61.398438 Z M 71.070312 66.878906 C 71.1875 65.726562 71.503906 64.871094 72.011719 64.332031 C 72.550781 63.742188 73.320312 63.417969 74.117188 63.441406 C 74.570312 63.429688 75.019531 63.523438 75.429688 63.71875 C 75.800781 63.894531 76.121094 64.160156 76.367188 64.484375 C 76.628906 64.835938 76.816406 65.234375 76.929688 65.660156 C 77.035156 66.039062 77.105469 66.449219 77.128906 66.878906 Z M 127.996094 59.484375 L 127.996094 64.464844 C 127.144531 64.65625 126.6875 64.609375 126.230469 64.640625 L 125.800781 64.617188 C 125.15625 64.617188 124.558594 64.703125 124.003906 64.871094 C 123.5 65.019531 123.039062 65.285156 122.65625 65.644531 C 122.261719 66.039062 121.960938 66.519531 121.785156 67.050781 C 121.578125 67.636719 121.472656 68.375 121.472656 69.242188 L 121.472656 79.140625 L 115.835938 79.476562 L 115.5 59.703125 C 115.5 59.515625 115.648438 59.367188 115.835938 59.367188 L 119.851562 59.367188 C 120 59.367188 120.132812 59.472656 120.171875 59.609375 L 120.832031 62.074219 C 121.046875 61.71875 121.285156 61.382812 121.542969 61.054688 C 122.1875 60.1875 123.101562 59.554688 124.136719 59.253906 C 124.886719 59.027344 125.675781 58.945312 126.453125 59.019531 C 126.628906 59.019531 126.800781 59.019531 126.964844 59.050781 Z M 96.230469 74.382812 L 96.375 78.601562 C 95.582031 79.199219 94.929688 79.421875 94.257812 79.5625 C 92.632812 79.925781 90.949219 79.914062 89.328125 79.519531 C 88.570312 79.320312 87.875 78.941406 87.296875 78.414062 C 86.683594 77.824219 86.214844 77.101562 85.929688 76.296875 C 85.589844 75.253906 85.433594 74.15625 85.460938 73.054688 L 85.460938 64 L 83.253906 64 L 82.921875 61.429688 L 85.902344 59.425781 L 87.398438 55.425781 L 91.097656 55.210938 C 91.285156 55.210938 91.429688 55.359375 91.429688 55.546875 L 91.429688 59.355469 L 95.828125 59.355469 C 96.011719 59.355469 96.164062 59.503906 96.164062 59.683594 L 96.164062 63.667969 L 91.429688 64.003906 L 91.429688 73.046875 C 91.429688 73.707031 91.585938 74.1875 91.882812 74.476562 C 93.617188 74.921875 94.078125 74.863281 94.515625 74.761719 C 94.992188 74.644531 95.460938 74.496094 95.925781 74.335938 L 96.230469 74.378906 Z M 63.667969 53.710938 L 63.667969 79.152344 L 58.308594 79.476562 L 57.972656 66.074219 L 58.046875 63.550781 L 58.101562 62.261719 L 58.144531 61.265625 L 52.714844 79.238281 L 47.433594 79.472656 L 42.160156 61.53125 C 42.246094 63.09375 42.304688 64.660156 42.335938 66.222656 C 42.351562 66.617188 42.363281 66.980469 42.363281 67.3125 L 42.363281 79.140625 L 37.210938 79.476562 L 36.875 53.707031 C 36.875 53.523438 37.019531 53.371094 37.207031 53.371094 L 44.542969 53.371094 C 44.703125 53.371094 44.828125 53.476562 44.871094 53.621094 L 50.101562 72.144531 L 55.679688 53.617188 L 63.339844 53.382812 C 63.519531 53.382812 63.667969 53.523438 63.667969 53.707031 Z M 112.390625 61.390625 C 111.621094 60.59375 110.675781 59.984375 109.632812 59.609375 C 108.476562 59.1875 107.253906 58.984375 106.027344 59.003906 C 104.675781 59.003906 103.414062 59.222656 102.289062 59.667969 C 101.179688 60.105469 100.179688 60.789062 99.382812 61.679688 C 98.539062 62.640625 97.90625 63.765625 97.515625 64.980469 C 97.050781 66.464844 96.820312 68.011719 96.851562 69.5625 C 96.851562 71.269531 97.097656 72.792969 97.574219 74.085938 C 98.070312 75.367188 98.761719 76.449219 99.636719 77.300781 C 100.511719 78.136719 101.578125 78.773438 102.785156 79.195312 C 104.058594 79.621094 105.398438 79.832031 106.742188 79.824219 C 107.503906 79.824219 108.160156 79.796875 108.746094 79.742188 C 110.390625 79.621094 111.996094 79.167969 113.460938 78.410156 L 113.636719 74.011719 C 111.777344 74.441406 110.285156 74.921875 108.742188 75.128906 C 108.203125 75.183594 107.652344 75.210938 107.109375 75.207031 C 106.507812 75.21875 105.90625 75.121094 105.339844 74.910156 C 104.851562 74.71875 104.414062 74.421875 104.046875 74.046875 C 103.679688 73.640625 103.398438 73.164062 103.210938 72.644531 C 103.042969 72.136719 102.941406 71.605469 102.90625 71.070312 L 114.410156 71.070312 L 114.746094 68.164062 C 114.769531 66.851562 114.5625 65.542969 114.136719 64.296875 C 113.773438 63.214844 113.179688 62.226562 112.390625 61.398438 Z M 108.308594 64.484375 C 108.570312 64.835938 108.761719 65.234375 108.875 65.660156 C 108.980469 66.039062 109.050781 66.449219 109.078125 66.878906 L 103.011719 66.878906 C 103.128906 65.726562 103.449219 64.871094 103.957031 64.332031 C 104.496094 63.742188 105.265625 63.417969 106.0625 63.441406 C 106.515625 63.429688 106.964844 63.523438 107.375 63.71875 Z M 33.386719 40.691406 L 32.65625 40.691406 L 28.851562 49.792969 L 29.808594 49.792969 L 30.96875 46.945312 L 35.070312 46.945312 L 36.246094 49.792969 L 37.207031 49.792969 L 33.398438 40.683594 L 33.386719 40.683594 Z M 31.152344 46.238281 L 33.03125 41.738281 L 34.847656 46.238281 Z M 39.0625 46.425781 L 42.019531 46.425781 C 43.578125 46.425781 44.628906 45.03125 44.628906 43.546875 C 44.628906 42.132812 43.503906 40.6875 41.945312 40.6875 L 38.171875 40.6875 L 38.171875 49.796875 L 39.054688 49.796875 L 39.054688 46.425781 Z M 39.0625 41.488281 L 41.898438 41.488281 C 42.894531 41.488281 43.742188 42.40625 43.742188 43.546875 C 43.742188 44.652344 43.050781 45.636719 41.972656 45.636719 L 39.0625 45.636719 Z M 45.082031 49.796875 L 46.246094 46.949219 L 50.335938 46.949219 L 51.507812 49.796875 L 52.492188 49.796875 L 48.683594 40.6875 L 47.945312 40.6875 L 44.132812 49.796875 Z M 48.316406 41.742188 L 50.136719 46.238281 L 46.453125 46.238281 L 48.332031 41.738281 L 48.320312 41.738281 Z M 52.464844 45.171875 C 52.464844 42.988281 54.046875 40.640625 56.785156 40.640625 C 58.199219 40.578125 59.519531 41.355469 60.148438 42.625 L 59.429688 43.054688 C 58.933594 42.03125 57.878906 41.398438 56.742188 41.441406 C 54.566406 41.441406 53.371094 43.386719 53.371094 45.222656 C 53.371094 47.226562 54.84375 49.050781 56.777344 49.050781 C 57.960938 49.066406 59.050781 48.410156 59.585938 47.355469 L 60.332031 47.742188 C 59.738281 49.109375 58.121094 49.863281 56.726562 49.863281 C 54.230469 49.863281 52.464844 47.476562 52.464844 45.167969 Z M 62.464844 49.796875 L 61.585938 49.796875 L 61.585938 40.6875 L 62.464844 40.6875 L 62.464844 44.742188 L 67.855469 44.742188 L 67.855469 40.6875 L 68.757812 40.6875 L 68.757812 49.796875 L 67.855469 49.796875 L 67.855469 45.535156 L 62.46875 45.535156 L 62.46875 49.796875 Z M 76.917969 49.796875 L 70.8125 49.796875 L 70.8125 40.6875 L 76.804688 40.6875 L 76.804688 41.488281 L 71.691406 41.488281 L 71.691406 44.773438 L 76.148438 44.773438 L 76.148438 45.53125 L 71.683594 45.53125 L 71.683594 48.996094 L 76.921875 48.996094 L 76.921875 49.796875 Z M 76.917969 49.796875 "/>
</g>
</svg>
