<?xml version="1.0" encoding="UTF-8"?>
<svg xmlns="http://www.w3.org/2000/svg" xmlns:xlink="http://www.w3.org/1999/xlink" width="128px" height="128px" viewBox="0 0 128 128" version="1.1">
<g id="surface1">
<path style=" stroke:none;fill-rule:evenodd;fill:rgb(3.529412%,14.117648%,29.411766%);fill-opacity:1;" d="M 16 26.667969 C 16 20.777344 20.777344 16 26.667969 16 L 101.332031 16 C 107.222656 16 112 20.777344 112 26.667969 L 112 101.332031 C 112 107.222656 107.222656 112 101.332031 112 L 26.667969 112 C 20.777344 112 16 107.222656 16 101.332031 Z M 74.339844 40.824219 C 72.457031 36.117188 65.710938 36.382812 64.199219 41.21875 L 54.855469 71.117188 L 52.785156 66.976562 C 51.871094 65.152344 50.007812 64 47.96875 64 L 37.332031 64 C 34.386719 64 32 66.386719 32 69.332031 C 32 72.277344 34.386719 74.667969 37.332031 74.667969 L 44.703125 74.667969 L 51.171875 87.601562 C 53.339844 91.9375 59.683594 91.425781 61.128906 86.796875 L 69.949219 58.570312 L 75.035156 71.28125 C 75.851562 73.324219 77.832031 74.667969 80.035156 74.667969 L 90.667969 74.667969 C 93.613281 74.667969 96 72.277344 96 69.332031 C 96 66.386719 93.613281 64 90.667969 64 L 83.609375 64 Z M 74.339844 40.824219 "/>
</g>
</svg>
