<?xml version="1.0" encoding="UTF-8"?>
<svg xmlns="http://www.w3.org/2000/svg" xmlns:xlink="http://www.w3.org/1999/xlink" width="128px" height="128px" viewBox="0 0 128 128" version="1.1">
<g id="surface1">
<path style=" stroke:none;fill-rule:evenodd;fill:rgb(0%,0%,0%);fill-opacity:1;" d="M 22 20 C 14.269531 20 8 26.269531 8 34 L 8 42 C 8 49.726562 14.273438 56 22 56 L 30 56 C 36.960938 56 42.863281 50.886719 43.855469 44 L 52 44 C 55.3125 44 58 46.6875 58 50 L 58 78 C 58 87.941406 66.058594 96 76 96 L 84.144531 96 C 85.113281 102.785156 90.945312 108 98 108 L 106 108 C 113.730469 108 120 101.730469 120 94 L 120 86 C 120 78.269531 113.730469 72 106 72 L 98 72 C 91.039062 72 85.136719 77.113281 84.144531 84 L 76 84 C 72.6875 84 70 81.3125 70 78 L 70 50 C 70 40.058594 61.941406 32 52 32 L 43.855469 32 C 42.863281 25.113281 36.960938 20 30 20 Z M 20 34 L 30 32 L 32 42 L 22 44 Z M 98 84 L 96 94 C 96 95.105469 96.894531 96 98 96 L 106 96 L 108 86 Z M 98 84 "/>
</g>
</svg>
