<?xml version="1.0" encoding="UTF-8"?>
<svg xmlns="http://www.w3.org/2000/svg" xmlns:xlink="http://www.w3.org/1999/xlink" width="128px" height="128px" viewBox="0 0 128 128" version="1.1">
<g id="surface1">
<path style=" stroke:none;fill-rule:nonzero;fill:rgb(100%,100%,100%);fill-opacity:1;" d="M 54.050781 56.6875 L 51.925781 62.523438 L 56.226562 62.523438 Z M 54.050781 56.6875 "/>
<path style=" stroke:none;fill-rule:nonzero;fill:rgb(100%,100%,100%);fill-opacity:1;" d="M 90.664062 32.460938 L 39.023438 32.460938 C 36.960938 32.460938 35.273438 34.148438 35.273438 36.210938 L 35.273438 87.851562 C 35.273438 89.914062 36.960938 91.601562 39.023438 91.601562 L 90.664062 91.601562 C 92.726562 91.601562 94.414062 89.914062 94.414062 87.851562 L 94.414062 36.210938 C 94.414062 34.136719 92.726562 32.460938 90.664062 32.460938 Z M 78.3125 53.023438 L 81.488281 53.023438 L 81.488281 68.75 L 78.3125 68.75 Z M 63.75 53.023438 L 68.851562 53.023438 C 70.789062 53.023438 72.039062 53.101562 72.625 53.261719 C 73.523438 53.5 74.273438 54.011719 74.886719 54.800781 C 75.5 55.585938 75.800781 56.613281 75.800781 57.863281 C 75.800781 58.824219 75.625 59.636719 75.273438 60.300781 C 74.925781 60.960938 74.476562 61.476562 73.9375 61.851562 C 73.398438 62.226562 72.851562 62.476562 72.289062 62.601562 C 71.523438 62.75 70.4375 62.824219 68.988281 62.824219 L 66.914062 62.824219 L 66.914062 68.75 L 63.75 68.75 Z M 52.414062 53.023438 L 55.773438 53.023438 L 62.0625 68.75 L 58.613281 68.75 L 57.238281 65.175781 L 50.949219 65.175781 L 49.648438 68.75 L 46.273438 68.75 Z M 81.050781 87.1875 L 44.074219 87.1875 C 41.648438 87.1875 39.6875 85.226562 39.6875 82.800781 L 39.6875 45.925781 C 39.6875 45.238281 40.25 44.675781 40.9375 44.675781 C 41.625 44.675781 42.1875 45.238281 42.1875 45.925781 L 42.1875 82.800781 C 42.1875 83.835938 43.039062 84.6875 44.074219 84.6875 L 81.050781 84.6875 C 81.738281 84.6875 82.300781 85.25 82.300781 85.9375 C 82.300781 86.625 81.75 87.1875 81.050781 87.1875 Z M 81.050781 87.1875 "/>
<path style=" stroke:none;fill-rule:nonzero;fill:rgb(100%,100%,100%);fill-opacity:1;" d="M 71.175781 59.898438 C 71.601562 59.738281 71.925781 59.476562 72.164062 59.125 C 72.398438 58.773438 72.523438 58.363281 72.523438 57.898438 C 72.523438 57.324219 72.363281 56.851562 72.023438 56.488281 C 71.6875 56.113281 71.261719 55.886719 70.75 55.789062 C 70.375 55.710938 69.613281 55.675781 68.460938 55.675781 L 66.925781 55.675781 L 66.925781 60.136719 L 68.664062 60.136719 C 69.914062 60.148438 70.75 60.0625 71.175781 59.898438 Z M 71.175781 59.898438 "/>
<path style=" stroke:none;fill-rule:nonzero;fill:rgb(2.352941%,95.294118%,100%);fill-opacity:1;" d="M 81.050781 84.6875 L 44.074219 84.6875 C 43.039062 84.6875 42.1875 83.835938 42.1875 82.800781 L 42.1875 45.925781 C 42.1875 45.238281 41.625 44.675781 40.9375 44.675781 C 40.25 44.675781 39.6875 45.238281 39.6875 45.925781 L 39.6875 82.800781 C 39.6875 85.226562 41.648438 87.1875 44.074219 87.1875 L 81.050781 87.1875 C 81.738281 87.1875 82.300781 86.625 82.300781 85.9375 C 82.300781 85.25 81.75 84.6875 81.050781 84.6875 Z M 81.050781 84.6875 "/>
<path style=" stroke:none;fill-rule:nonzero;fill:rgb(0%,35.686275%,100%);fill-opacity:1;" d="M 108.125 48.3125 C 109.5 48.3125 110.625 47.1875 110.625 45.8125 C 110.625 44.4375 109.5 43.3125 108.125 43.3125 L 99.414062 43.3125 L 99.414062 36.210938 C 99.414062 31.386719 95.488281 27.460938 90.664062 27.460938 L 87.1875 27.460938 L 87.1875 19.050781 C 87.1875 17.675781 86.0625 16.550781 84.6875 16.550781 C 83.3125 16.550781 82.1875 17.675781 82.1875 19.050781 L 82.1875 27.460938 L 76.375 27.460938 L 76.375 19.050781 C 76.375 17.675781 75.25 16.550781 73.875 16.550781 C 72.5 16.550781 71.375 17.675781 71.375 19.050781 L 71.375 27.460938 L 65.5625 27.460938 L 65.5625 19.050781 C 65.5625 17.675781 64.4375 16.550781 63.0625 16.550781 C 61.6875 16.550781 60.5625 17.675781 60.5625 19.050781 L 60.5625 27.460938 L 54.75 27.460938 L 54.75 19.050781 C 54.75 17.675781 53.625 16.550781 52.25 16.550781 C 50.875 16.550781 49.75 17.675781 49.75 19.050781 L 49.75 27.460938 L 39.023438 27.460938 C 34.199219 27.460938 30.273438 31.386719 30.273438 36.210938 L 30.273438 43.3125 L 21.5625 43.3125 C 20.1875 43.3125 19.0625 44.4375 19.0625 45.8125 C 19.0625 47.1875 20.1875 48.3125 21.5625 48.3125 L 30.273438 48.3125 L 30.273438 54.125 L 21.5625 54.125 C 20.1875 54.125 19.0625 55.25 19.0625 56.625 C 19.0625 58 20.1875 59.125 21.5625 59.125 L 30.273438 59.125 L 30.273438 64.9375 L 21.5625 64.9375 C 20.1875 64.9375 19.0625 66.0625 19.0625 67.4375 C 19.0625 68.8125 20.1875 69.9375 21.5625 69.9375 L 30.273438 69.9375 L 30.273438 75.75 L 21.5625 75.75 C 20.1875 75.75 19.0625 76.875 19.0625 78.25 C 19.0625 79.625 20.1875 80.75 21.5625 80.75 L 30.273438 80.75 L 30.273438 87.851562 C 30.273438 92.675781 34.199219 96.601562 39.023438 96.601562 L 42.875 96.601562 L 42.875 105.664062 C 42.875 107.039062 44 108.164062 45.375 108.164062 C 46.75 108.164062 47.875 107.039062 47.875 105.664062 L 47.875 96.601562 L 53.6875 96.601562 L 53.6875 105.664062 C 53.6875 107.039062 54.8125 108.164062 56.1875 108.164062 C 57.5625 108.164062 58.6875 107.039062 58.6875 105.664062 L 58.6875 96.601562 L 64.5 96.601562 L 64.5 105.664062 C 64.5 107.039062 65.625 108.164062 67 108.164062 C 68.375 108.164062 69.5 107.039062 69.5 105.664062 L 69.5 96.601562 L 75.3125 96.601562 L 75.3125 105.664062 C 75.3125 107.039062 76.4375 108.164062 77.8125 108.164062 C 79.1875 108.164062 80.3125 107.039062 80.3125 105.664062 L 80.3125 96.601562 L 90.664062 96.601562 C 95.488281 96.601562 99.414062 92.675781 99.414062 87.851562 L 99.414062 80.75 L 108.125 80.75 C 109.5 80.75 110.625 79.625 110.625 78.25 C 110.625 76.875 109.5 75.75 108.125 75.75 L 99.414062 75.75 L 99.414062 69.9375 L 108.125 69.9375 C 109.5 69.9375 110.625 68.8125 110.625 67.4375 C 110.625 66.0625 109.5 64.9375 108.125 64.9375 L 99.414062 64.9375 L 99.414062 59.125 L 108.125 59.125 C 109.5 59.125 110.625 58 110.625 56.625 C 110.625 55.25 109.5 54.125 108.125 54.125 L 99.414062 54.125 L 99.414062 48.3125 Z M 94.414062 87.835938 C 94.414062 89.898438 92.726562 91.585938 90.664062 91.585938 L 39.023438 91.585938 C 36.960938 91.585938 35.273438 89.898438 35.273438 87.835938 L 35.273438 36.210938 C 35.273438 34.148438 36.960938 32.460938 39.023438 32.460938 L 90.664062 32.460938 C 92.726562 32.460938 94.414062 34.148438 94.414062 36.210938 Z M 94.414062 87.835938 "/>
<path style=" stroke:none;fill-rule:nonzero;fill:rgb(0%,35.686275%,100%);fill-opacity:1;" d="M 50.949219 65.175781 L 57.238281 65.175781 L 58.613281 68.75 L 62.0625 68.75 L 55.761719 53.023438 L 52.398438 53.023438 L 46.273438 68.75 L 49.648438 68.75 Z M 54.050781 56.6875 L 56.210938 62.523438 L 51.925781 62.523438 Z M 66.925781 62.824219 L 69 62.824219 C 70.4375 62.824219 71.539062 62.75 72.300781 62.601562 C 72.863281 62.476562 73.414062 62.226562 73.949219 61.851562 C 74.488281 61.476562 74.9375 60.960938 75.289062 60.300781 C 75.636719 59.636719 75.8125 58.824219 75.8125 57.863281 C 75.8125 56.613281 75.511719 55.585938 74.898438 54.800781 C 74.289062 54.011719 73.539062 53.5 72.636719 53.261719 C 72.050781 53.101562 70.789062 53.023438 68.863281 53.023438 L 63.75 53.023438 L 63.75 68.75 L 66.925781 68.75 Z M 66.925781 55.6875 L 68.460938 55.6875 C 69.613281 55.6875 70.363281 55.726562 70.75 55.800781 C 71.261719 55.886719 71.6875 56.125 72.023438 56.5 C 72.363281 56.875 72.523438 57.351562 72.523438 57.914062 C 72.523438 58.375 72.398438 58.789062 72.164062 59.136719 C 71.925781 59.488281 71.585938 59.75 71.175781 59.914062 C 70.75 60.074219 69.914062 60.164062 68.664062 60.164062 L 66.925781 60.164062 Z M 78.3125 53.023438 L 81.488281 53.023438 L 81.488281 68.75 L 78.3125 68.75 Z M 78.3125 53.023438 "/>
</g>
</svg>
